<svg width="398" height="750" viewBox="0 0 398 750" fill="none" xmlns="http://www.w3.org/2000/svg">
<path d="M47.641 638.024V633.159H12.1875V750H47.641V745.135H17.0752V638.024H47.641Z" fill="#CF5E5E"/>
<path d="M350.463 633.156V638.022H381.028V745.133H350.463V749.998H385.915V633.156H350.463Z" fill="#CF5E5E"/>
<path d="M73.1302 667.078H97.3662V661.752H73.1302V654.445H98.2877V649.139H66.7998V680.772H98.6873V675.447H73.1302V667.078Z" fill="#CF5E5E"/>
<path d="M123.105 649.134H116.775V680.766H123.105V649.134Z" fill="#CF5E5E"/>
<path d="M162.815 668.545H175.755C174.052 673.751 169.625 676.173 161.953 676.173C153.32 676.173 148.573 672.189 148.573 664.921C148.573 657.814 153.721 653.73 162.675 653.73C169.285 653.73 173.751 656.012 174.933 659.997L175.213 660.897H181.763L181.522 659.396C180.521 653.93 174.312 648.364 162.674 648.364C150.276 648.364 141.942 655.011 141.942 664.921C141.942 675.132 149.735 681.479 162.274 681.479C168.483 681.479 172.809 680.057 176.474 676.754L176.835 680.759H182.203V663.22H162.815V668.545Z" fill="#CF5E5E"/>
<path d="M231.709 680.765H238.018V649.132H231.709V661.404H207.972V649.132H201.644V680.765H207.972V666.77H231.709V680.765Z" fill="#CF5E5E"/>
<path d="M254.027 654.449H268.288V680.756H274.597V654.449H288.879V649.123H254.027V654.449Z" fill="#CF5E5E"/>
<path d="M333.053 649.129L320.253 662.404L307.614 649.31L307.454 649.129H299.001L317.087 667.789V680.762H323.437V667.789L341.525 649.129H333.053Z" fill="#CF5E5E"/>
<path d="M165.749 717.384C156.755 716.143 153.571 715.282 153.571 712.8C153.571 710.517 157.257 708.935 162.584 708.935C171.178 708.935 172.48 711.859 172.719 714.04L172.839 715.202H179.089L179.029 713.86C178.788 707.334 172.801 703.57 162.585 703.57C152.79 703.57 146.941 707.214 146.941 713.3C146.941 719.587 153.851 721.349 161.323 722.309L162.745 722.489C168.254 723.19 173.461 723.851 173.461 726.854C173.461 730.578 168.113 731.359 163.646 731.359C155.895 731.359 152.69 729.556 152.169 724.932L152.049 723.77H145.759L145.859 725.172C146.401 732.901 152.229 736.684 163.646 736.684C174.102 736.684 180.111 732.901 180.111 726.333C180.111 719.266 171.457 718.125 165.749 717.384Z" fill="#CF5E5E"/>
<path d="M204.107 704.351H197.777V735.984H204.107V704.351Z" fill="#CF5E5E"/>
<path d="M258.918 704.342H250.585L238.968 715.774L227.831 704.522L227.65 704.342H219.018L234.421 719.919L218.376 735.975H226.829L238.827 723.963L250.746 735.975H259.339L243.354 719.779L258.918 704.342Z" fill="#CF5E5E"/>
<mask id="mask0_98_63" style="mask-type:alpha" maskUnits="userSpaceOnUse" x="0" y="0" width="398" height="623">
<path d="M398 0H0V622.786H398V0Z" fill="black"/>
</mask>
<g mask="url(#mask0_98_63)">
<path d="M398 762.09H0V-0.000976562H398V762.09ZM178.727 560.457C177.685 561.538 176.242 561.878 174.68 562.059C167.348 562.78 153.088 564.141 149.943 564.141C146.838 564.141 144.554 563.401 143.693 561.178L143.593 561.158C143.012 561.378 142.491 562.479 142.491 563.3C142.491 565.623 146.016 568.766 147.719 568.766C149.482 568.766 149.983 567.925 151.905 567.484C154.49 566.865 159.457 566.344 162.041 566.063C162.381 566.504 162.542 566.964 162.542 567.744C162.542 570.387 160.419 582.439 149.983 589.547L150.704 590.348C161.34 585.823 165.847 578.356 168.11 569.587C168.39 568.626 169.151 568.625 169.151 567.544C169.151 566.983 168.389 566.163 167.448 565.622C169.532 565.462 171.896 565.362 173.858 565.362C174.599 565.362 175.261 565.362 175.882 565.422C178.966 565.563 181.29 565.963 182.912 565.963C184.515 565.963 185.677 565.662 185.677 564.581C185.677 562.679 182.752 561.478 178.727 560.457ZM194.673 564.944C192.891 564.944 192.891 565.724 192.891 565.765C193.792 565.805 194.634 566.165 194.634 566.686C194.593 567.046 194.512 567.407 194.192 567.827C190.948 571.932 183.076 577.838 174.805 581.521L175.124 582.183C180.392 580.66 184.679 578.799 188.324 576.657C188.404 577.478 188.444 578.959 188.444 579.7C188.444 581.722 188.404 586.027 187.744 586.808C188.005 588.689 188.585 590.291 189.847 590.291C191.168 590.291 191.609 589.59 191.609 587.828C191.609 587.128 191.449 586.106 191.449 585.165V580.66C191.449 579.74 191.449 578.339 191.528 577.918C191.648 577.477 191.889 577.097 191.889 576.696C191.889 576.196 191.328 575.576 190.707 575.136C193.131 573.474 195.294 571.591 197.298 569.669C197.578 569.329 197.998 569.068 198.318 568.988C198.82 568.808 199.3 568.728 199.3 568.327C199.3 567.326 196.756 564.944 194.673 564.944ZM263.147 567.767C262.287 567.767 261.605 568.208 261.305 568.688L261.345 568.769C262.286 568.808 263.308 569.189 263.308 570.05C263.307 571.052 261.024 582.684 247.665 588.949L248.024 589.55C258.24 586.166 263.507 580.24 266.412 572.271C266.532 571.911 266.713 571.671 266.873 571.591C267.273 571.291 267.614 571.15 267.614 570.71C267.614 569.669 264.931 567.767 263.147 567.767ZM285.197 548.101C283.475 548.101 282.252 548.821 281.852 549.802C284.054 549.802 284.856 550.623 284.856 551.805C284.856 553.988 280.248 564.898 271.396 571.785L272.078 572.506C278.326 569.363 282.794 565.138 285.759 561.113C286.339 561.474 287.039 561.734 288.042 561.734C289.844 561.734 297.415 559.912 299.118 559.912C299.359 559.912 299.458 560.013 299.458 560.253C299.458 560.413 299.398 560.634 299.318 560.913C295.412 572.245 287.741 581.995 274.321 588.342L274.842 589.163C291.126 584.178 299.558 575.068 304.646 562.395C304.947 561.674 305.548 560.974 306.009 560.773C306.93 560.353 307.49 560.112 307.49 559.492C307.49 558.451 303.364 555.588 302.002 555.588C301.502 555.588 300.961 556.189 300.5 556.689C300.02 557.21 299.558 557.51 298.617 557.649C295.974 558.03 290.585 558.491 288.843 558.491C288.502 558.491 288.042 558.451 287.741 558.411C288.542 557.19 289.544 555.468 290.186 554.187C290.425 553.666 291.127 553.025 291.487 552.865C291.987 552.465 292.428 552.265 292.429 551.704C292.429 550.483 287.782 548.101 285.197 548.101ZM128.798 548.392C127.095 548.392 126.033 549.333 126.033 549.673C127.355 549.673 128.938 550.373 128.938 551.534C128.938 555.119 110.229 568.952 96.3291 575.499L96.8691 576.3C106.244 573.317 113.675 569.512 118.281 566.709C118.823 567.47 118.823 570.274 118.823 571.355C118.823 573.918 118.663 577.341 118.503 579.203C118.322 581.185 118.181 582.046 117.48 582.887C118.121 586.17 119.122 589.113 120.945 589.113C122.608 589.113 123.71 587.631 123.71 585.269C123.71 583.687 123.49 582.286 123.49 580.764C123.45 579.062 123.41 574.678 123.41 572.216C123.41 570.915 123.41 569.552 123.59 568.611C123.709 567.852 123.91 567.611 123.91 566.891C123.91 566.23 123.05 565.048 121.948 564.367C124.751 562.445 130.099 558.581 133.124 555.979C133.664 555.558 134.186 555.078 134.767 554.897C135.968 554.518 136.308 554.418 136.309 553.657C136.309 551.335 131.823 548.392 128.798 548.392ZM313.766 551.204C313.444 551.205 312.323 552.146 312.323 553.467C312.323 555.849 315.348 558.792 317.411 558.792C318.092 558.792 318.533 558.352 319.054 558.071C319.595 557.691 319.976 557.51 321.237 557.25C325.925 556.328 332.695 555.509 333.696 555.509C334.056 555.509 334.136 555.549 334.136 555.749C334.136 555.849 334.136 555.929 334.116 556.029C330.571 566.66 319.596 579.634 307.017 586.781L307.576 587.603C316.951 584.119 325.223 577.633 330.15 571.927C334.757 574.73 339.224 580.655 340.687 583.218C342.089 585.84 343.03 587.262 344.633 587.262C346.575 587.262 347.758 585.68 347.758 584.019C347.758 582.096 346.054 579.954 344.031 578.053C341.227 575.53 335.839 572.546 331.252 570.685C334.457 566.901 338.042 561.015 339.585 557.892C339.845 557.412 340.185 556.991 340.866 556.69C341.728 556.41 342.429 556.129 342.429 555.469C342.429 554.528 338.102 551.364 336.881 551.364C336.24 551.364 335.839 551.806 335.139 552.466C334.657 552.907 334.397 553.087 333.496 553.227C329.371 553.707 321.239 554.187 319.856 554.188C318.394 554.188 316.85 554.187 315.769 553.767C314.667 553.266 313.866 552.265 313.766 551.204ZM244.277 557.985C236.406 569.757 223.245 577.625 214.252 580.949C213.411 581.29 212.65 581.43 211.969 581.43C210.327 581.43 209.025 580.469 208.283 578.387C207.342 578.807 206.921 579.949 206.921 581.29C206.921 583.612 211.268 587.496 213.45 587.436C214.453 587.416 214.813 586.515 215.313 586.074C215.714 585.734 216.095 585.354 217.256 584.853C227.531 580.127 238.789 571.579 245.058 558.445L244.277 557.985ZM85.9961 552.303C84.8945 552.303 84.7341 553.465 81.209 554.125C75.6609 555.346 67.6681 555.667 63.7422 555.767C60.3973 555.767 57.5532 554.946 56.4111 552.764H56.2305C55.3699 553.405 55.1895 554.526 55.1895 555.547C55.1895 557.468 58.3139 560.231 61.3789 560.231C63.0007 560.231 64.2028 559.571 66.1064 559.29L70.2109 558.871C71.6537 560.013 71.8936 561.014 71.8936 568.381C71.8936 572.225 71.7735 577.191 71.5342 581.255C67.8483 581.455 61.3779 581.695 58.373 581.734C53.867 581.734 51.963 580.434 50.9619 577.851L50.6426 577.791C49.7012 578.451 49.4004 579.612 49.4004 580.754C49.4004 583.797 52.9453 587.141 56.0508 587.141C57.9123 587.141 58.0938 586.1 61.959 585.499C68.5486 584.498 75.6605 583.997 81.4492 583.997C83.5116 583.997 85.4148 584.097 87.0371 584.218C89.8207 584.497 92.9454 585.038 95.1885 585.158C95.9297 585.218 96.6915 585.219 97.2725 585.219C99.5159 585.219 100.777 584.878 100.777 583.557C100.777 581.375 97.7329 579.933 92.4053 578.731C91.3834 579.552 90.462 579.873 88.9609 580.093C86.4769 580.433 79.8664 580.854 76.8027 580.974C77.3428 575.688 77.7227 568.66 77.8438 565.137C77.8438 562.875 78.6043 562.254 78.6045 561.293C78.6045 560.452 77.162 558.91 75.7607 558.25C78.9457 557.99 82.0092 557.81 83.6328 557.81C84.6133 557.81 89.0605 557.989 89.9814 557.989C92.2456 557.989 93.4473 557.649 93.4473 556.008C93.4473 553.745 87.2774 552.303 85.9961 552.303ZM243.018 569.629C244.62 571.191 245.602 573.573 245.722 575.315C245.782 576.316 246.343 576.816 247.324 576.816C248.325 576.816 249.006 575.996 249.006 574.715C249.006 572.693 246.562 570.15 243.398 569.269L243.018 569.629ZM251.49 567.668C253.052 569.81 253.392 572.032 253.433 573.794V573.894C253.433 574.954 254.035 575.535 254.955 575.535C256.137 575.535 256.878 574.634 256.878 572.973C256.878 571.111 255.155 568.848 251.991 567.326L251.49 567.668ZM15.5439 572.093H46.6504V569.23H15.5439V572.093ZM351.349 572.093H382.455V569.23H351.349V572.093ZM204.538 562.31L204.178 563.07C207.623 564.371 210.167 566.293 211.468 567.655C212.509 568.756 213.412 569.897 214.554 569.897C216.296 569.897 217.297 568.856 217.297 567.515C217.297 564.292 212.21 562.109 204.538 562.31ZM210.427 551.958L210.005 552.56C213.71 554.221 215.755 555.842 217.057 557.224C218.158 558.486 218.999 559.787 220.541 559.787C222.084 559.787 223.085 558.886 223.085 557.404C223.085 554.221 218.158 551.859 210.427 551.958ZM171.314 549.045C169.152 551.247 157.994 552.028 156.873 552.028C153.909 552.028 151.745 551.988 149.983 550.727L149.723 550.927C149.983 553.65 152.968 555.632 156.492 555.632C159.899 555.632 167.289 554.171 171.956 554.11C174.279 554.071 177.524 553.85 177.524 552.488C177.585 550.566 174.319 549.405 171.314 549.045ZM216.172 268.025C214.189 274.593 212.407 280.819 210.845 286.686C209.243 292.552 208.06 299.118 207.279 306.386C206.478 313.673 205.877 322.342 205.497 332.433C205.076 342.523 204.916 355.317 204.916 370.792C204.916 387.209 205.076 400.704 205.497 411.274C205.877 421.826 206.579 430.735 207.56 438.022C208.541 445.29 209.943 451.496 211.706 456.661C213.489 461.827 215.952 467.212 219.157 472.858C227.049 487.874 237.545 499.727 250.605 508.396C263.645 517.084 278.487 521.429 295.112 521.429C311.738 521.429 326.661 517.204 339.92 508.756C353.16 500.307 363.735 488.334 371.667 472.858C374.431 467.212 376.714 461.827 378.497 456.661C380.281 451.496 381.642 445.29 382.644 438.022C383.625 430.735 384.326 421.825 384.706 411.274C385.107 400.704 385.308 387.209 385.308 370.792C385.308 351.092 385.107 334.775 384.706 321.882C384.326 308.969 383.625 298.297 382.644 289.849C381.642 281.4 380.36 274.593 378.778 269.448C377.195 264.283 375.013 259.117 372.249 253.951C367.1 244.562 359.99 236.834 350.896 230.728C341.782 224.621 331.887 221.578 321.211 221.578C314.48 221.578 309.052 222.159 304.906 223.34C300.74 224.502 297.656 226.043 295.692 227.904L294.51 226.503L363.354 16.0449H295.692L216.172 268.025ZM102.892 11.8184C89.0301 11.8184 76.1906 15.2416 64.3125 22.0293C52.4356 28.8363 42.5403 38.3458 34.6279 50.5381C30.6617 56.6451 27.2976 62.5115 24.5332 68.1367C21.7693 73.763 19.4845 80.1098 17.7217 87.1367C15.9396 94.1846 14.6375 102.533 13.8564 112.123C13.0555 121.752 12.6738 133.365 12.6738 146.959C12.6738 161.994 12.8546 174.647 13.2764 184.979C13.6368 195.309 14.8391 204.459 16.8418 212.427C18.8052 220.395 21.8895 227.562 26.0352 233.889C30.1821 240.235 35.8108 246.922 42.9404 253.949C35.8103 260.516 30.182 267.083 26.0352 273.67C21.8893 280.237 18.8053 287.965 16.8418 296.895C14.8391 305.803 13.6368 316.715 13.2764 329.628C12.8557 342.522 12.6748 358.358 12.6748 377.138C12.6748 392.614 12.9558 405.406 13.5771 415.497C14.1581 425.587 15.0593 434.377 16.2207 441.885C17.4224 449.393 19.1062 455.718 21.2686 460.884C23.452 466.049 26.1356 471.455 29.3008 477.081C36.0115 489.273 45.505 499.725 57.7832 508.394C70.0415 517.082 85.084 521.427 102.892 521.427C120.678 521.427 135.701 517.082 148 508.394C160.237 499.725 169.732 489.273 176.462 477.081C179.646 471.455 182.291 466.049 184.494 460.884C186.637 455.718 188.34 449.392 189.522 441.885C190.704 434.377 191.606 425.588 192.206 415.497C192.786 405.406 193.067 392.613 193.067 377.138C193.067 358.358 192.886 342.521 192.485 329.628C192.105 316.715 190.904 305.803 188.921 296.895C186.957 287.965 183.893 280.237 179.727 273.67C175.56 267.083 169.932 260.516 162.821 253.949C169.932 246.922 175.56 240.235 179.727 233.889C183.893 227.562 186.957 220.395 188.921 212.427C190.904 204.459 192.105 195.309 192.485 184.979C192.887 174.648 193.067 161.994 193.067 146.959C193.067 133.365 192.686 121.753 191.905 112.123C191.104 102.533 189.821 94.1846 188.06 87.1367C186.276 80.1098 183.973 73.7624 181.229 68.1367C178.445 62.5115 175.08 56.6451 171.134 50.5381C163.202 38.3458 153.327 28.8363 141.449 22.0293C129.592 15.2422 116.732 11.8184 102.892 11.8184ZM295.111 284.924C303.003 284.924 309.953 288.207 315.883 294.773C321.812 301.34 324.776 310.03 324.776 320.82V413.737C324.776 424.529 321.812 433.198 315.883 439.765C309.953 446.352 303.003 449.635 295.111 449.635C287.18 449.635 280.269 446.351 274.32 439.765C268.412 433.197 265.428 424.529 265.428 413.737V320.82C265.428 310.03 268.412 301.34 274.32 294.773C280.269 288.207 287.18 284.924 295.111 284.924ZM102.891 280.697C110.782 280.697 117.712 284.101 123.661 290.908C129.591 297.715 132.556 306.044 132.556 315.894V414.437C132.556 424.286 129.59 432.615 123.661 439.422C117.712 446.229 110.782 449.633 102.891 449.633C94.9589 449.633 88.0277 446.229 82.0986 439.422C76.1906 432.615 73.2061 424.286 73.2061 414.437V315.894C73.2061 306.044 76.19 297.715 82.0986 290.908C88.0277 284.102 94.9588 280.697 102.891 280.697ZM102.891 83.6133C110.782 83.6134 117.712 87.0367 123.661 93.8242C129.591 100.631 132.556 108.959 132.556 118.81V192.025C132.556 201.876 129.59 210.204 123.661 217.011C117.712 223.798 110.782 227.202 102.891 227.202C94.9588 227.202 88.0277 223.798 82.0986 217.011C76.1907 210.204 73.2061 201.876 73.2061 192.025V118.81C73.2061 108.959 76.19 100.631 82.0986 93.8242C88.0277 87.0371 94.9588 83.6133 102.891 83.6133Z" fill="#CF5E5E"/>
</g>
</svg>
