<svg width="128" height="128" viewBox="0 0 128 128" fill="none" xmlns="http://www.w3.org/2000/svg">
<path d="M94.0156 128H33V0H94.0156V128ZM60.3994 115.94C60.2398 116.164 60.0186 116.234 59.7793 116.271C58.6553 116.421 56.4684 116.702 55.9863 116.702C55.5105 116.702 55.1603 116.549 55.0283 116.09L55.0127 116.085C54.9237 116.131 54.8438 116.359 54.8438 116.528C54.8438 117.009 55.3844 117.659 55.6455 117.659C55.9157 117.659 55.9928 117.486 56.2871 117.395C56.6834 117.266 57.4456 117.159 57.8418 117.101C57.8937 117.192 57.918 117.287 57.918 117.448C57.9178 117.996 57.5925 120.488 55.9932 121.958L56.1035 122.124C57.7339 121.188 58.4245 119.643 58.7715 117.829C58.8144 117.63 58.9316 117.63 58.9316 117.406C58.9314 117.29 58.8141 117.121 58.6699 117.009C58.9893 116.976 59.3525 116.955 59.6533 116.955C59.7667 116.955 59.8678 116.955 59.9629 116.968C60.4358 116.997 60.7923 117.079 61.041 117.079C61.2866 117.079 61.4646 117.017 61.4648 116.794C61.4648 116.401 61.0166 116.152 60.3994 115.94ZM62.8438 116.869C62.5706 116.869 62.5703 117.031 62.5703 117.039C62.7086 117.047 62.8379 117.122 62.8379 117.229C62.8317 117.304 62.8196 117.379 62.7705 117.466C62.2731 118.315 61.0659 119.537 59.7979 120.299L59.8467 120.436C60.6543 120.121 61.3122 119.735 61.8711 119.292C61.8833 119.462 61.8887 119.769 61.8887 119.922C61.8887 120.34 61.8824 121.23 61.7812 121.392C61.8212 121.781 61.9111 122.112 62.1045 122.112C62.3067 122.112 62.374 121.967 62.374 121.603C62.374 121.458 62.3496 121.246 62.3496 121.052V120.12C62.3496 119.93 62.3501 119.64 62.3623 119.553C62.3806 119.462 62.417 119.383 62.417 119.3C62.4168 119.197 62.3313 119.068 62.2363 118.978C62.6079 118.634 62.939 118.244 63.2461 117.847C63.2889 117.777 63.3533 117.723 63.4023 117.706C63.4791 117.669 63.5535 117.652 63.5537 117.569C63.5537 117.362 63.1631 116.869 62.8438 116.869ZM73.3418 117.453C73.2099 117.453 73.1047 117.545 73.0586 117.645L73.0654 117.661C73.2096 117.669 73.3662 117.748 73.3662 117.926C73.3662 118.133 73.0159 120.54 70.9678 121.836L71.0234 121.96C72.5892 121.26 73.3965 120.034 73.8418 118.386C73.8602 118.311 73.8885 118.262 73.9131 118.245C73.9743 118.183 74.0263 118.154 74.0264 118.062C74.0264 117.847 73.6153 117.454 73.3418 117.453ZM76.7217 113.385C76.4578 113.385 76.2705 113.534 76.209 113.736C76.5467 113.736 76.6699 113.907 76.6699 114.151C76.6695 114.604 75.963 116.86 74.6064 118.284L74.7109 118.434C75.6686 117.784 76.3532 116.91 76.8076 116.077C76.8966 116.152 77.0045 116.205 77.1582 116.205C77.4348 116.205 78.5936 115.829 78.8555 115.828C78.8924 115.828 78.9082 115.849 78.9082 115.898C78.9082 115.931 78.8989 115.977 78.8867 116.035C78.2879 118.379 77.112 120.397 75.0547 121.71L75.1348 121.879C77.6309 120.848 78.9231 118.963 79.7031 116.342C79.7491 116.193 79.8415 116.049 79.9121 116.007C80.0534 115.92 80.1396 115.87 80.1396 115.741C80.1395 115.526 79.5066 114.934 79.2979 114.934C79.2213 114.934 79.138 115.058 79.0674 115.161C78.9938 115.269 78.9235 115.331 78.7793 115.36C78.3741 115.439 77.5474 115.534 77.2803 115.534C77.228 115.534 77.1573 115.526 77.1113 115.518C77.2341 115.265 77.3879 114.909 77.4863 114.644C77.523 114.536 77.6302 114.403 77.6855 114.37C77.7622 114.287 77.8301 114.246 77.8301 114.13C77.8296 113.877 77.1177 113.385 76.7217 113.385ZM52.7451 113.445C52.4845 113.445 52.3219 113.639 52.3213 113.71C52.5239 113.71 52.7666 113.856 52.7666 114.096C52.7659 114.838 49.8982 117.699 47.7676 119.053L47.8506 119.219C49.2876 118.602 50.4267 117.814 51.1328 117.234C51.2158 117.392 51.2158 117.971 51.2158 118.195C51.2158 118.725 51.1916 119.434 51.167 119.819C51.1393 120.229 51.1171 120.407 51.0098 120.581C51.108 121.26 51.2616 121.869 51.541 121.869C51.7959 121.869 51.9648 121.563 51.9648 121.074C51.9648 120.747 51.9317 120.457 51.9316 120.143C51.9255 119.791 51.9189 118.883 51.9189 118.374C51.9189 118.105 51.9187 117.823 51.9463 117.628C51.9646 117.471 51.996 117.421 51.9961 117.272C51.9961 117.136 51.8632 116.891 51.6943 116.75C52.1241 116.352 52.9445 115.553 53.4082 115.015C53.4909 114.928 53.5711 114.828 53.6602 114.791C53.8441 114.712 53.8965 114.691 53.8965 114.534C53.8961 114.054 53.2087 113.445 52.7451 113.445ZM81.1016 114.026C81.0524 114.026 80.8799 114.222 80.8799 114.495C80.8801 114.988 81.3439 115.596 81.6602 115.597C81.7646 115.597 81.8323 115.505 81.9121 115.447C81.9951 115.369 82.0537 115.331 82.2471 115.277C82.9657 115.087 84.0038 114.917 84.1572 114.917C84.2121 114.917 84.2246 114.925 84.2246 114.967C84.2246 114.988 84.2246 115.005 84.2217 115.025C83.6781 117.225 81.9947 119.908 80.0664 121.387L80.1523 121.557C81.5895 120.836 82.858 119.494 83.6133 118.313C84.3195 118.893 85.0044 120.119 85.2285 120.649C85.4434 121.192 85.5876 121.486 85.833 121.486C86.1307 121.486 86.3124 121.159 86.3125 120.815C86.3125 120.418 86.0513 119.974 85.7412 119.581C85.3113 119.059 84.4854 118.442 83.7822 118.057C84.2736 117.274 84.823 116.056 85.0596 115.41C85.0995 115.311 85.1515 115.223 85.2559 115.161C85.3879 115.103 85.495 115.046 85.4951 114.909C85.4951 114.715 84.8332 114.06 84.6455 114.06C84.5473 114.06 84.4853 114.151 84.3779 114.288C84.3043 114.379 84.264 114.416 84.126 114.445C83.4934 114.545 82.2471 114.644 82.0352 114.644C81.8109 114.644 81.574 114.644 81.4082 114.557C81.2395 114.453 81.1169 114.246 81.1016 114.026ZM70.4482 115.429C69.2416 117.864 67.2244 119.492 65.8457 120.18C65.7168 120.25 65.5995 120.278 65.4951 120.278C65.2436 120.278 65.0444 120.08 64.9307 119.649C64.7863 119.736 64.7217 119.972 64.7217 120.25C64.7218 120.73 65.3881 121.534 65.7227 121.521C65.8763 121.517 65.9311 121.33 66.0078 121.239C66.0692 121.169 66.128 121.091 66.3057 120.987C67.8809 120.01 69.6073 118.241 70.5684 115.524L70.4482 115.429ZM46.1836 114.255C46.0147 114.255 45.9897 114.495 45.4492 114.632C44.5987 114.884 43.3733 114.95 42.7715 114.971C42.2587 114.971 41.8225 114.801 41.6475 114.35H41.6201C41.4882 114.482 41.46 114.715 41.46 114.926C41.4602 115.323 41.9394 115.894 42.4092 115.895C42.6577 115.895 42.8421 115.758 43.1338 115.7L43.7637 115.613C43.9846 115.849 44.0215 116.057 44.0215 117.58C44.0215 118.375 44.0025 119.402 43.9658 120.243C43.4007 120.285 42.4088 120.335 41.9482 120.343C41.2576 120.343 40.966 120.073 40.8125 119.539L40.7637 119.527C40.6194 119.664 40.5733 119.904 40.5732 120.14C40.5732 120.769 41.1167 121.461 41.5928 121.461C41.8778 121.461 41.9059 121.246 42.498 121.122C43.5083 120.915 44.5989 120.811 45.4863 120.811C45.8024 120.811 46.0941 120.832 46.3428 120.856C46.7695 120.914 47.2489 121.026 47.5928 121.051C47.7063 121.063 47.8231 121.063 47.9121 121.063C48.256 121.063 48.4492 120.993 48.4492 120.72C48.4492 120.268 47.9826 119.97 47.166 119.722C47.0093 119.892 46.8678 119.957 46.6377 120.003C46.2569 120.073 45.2431 120.161 44.7734 120.186C44.8562 119.092 44.915 117.638 44.9336 116.909C44.9336 116.441 45.0497 116.313 45.0498 116.114C45.0498 115.94 44.8291 115.621 44.6143 115.484C45.1025 115.431 45.5724 115.394 45.8213 115.394C45.9722 115.394 46.6523 115.431 46.7939 115.431C47.1411 115.431 47.3252 115.36 47.3252 115.021C47.3247 114.553 46.3808 114.255 46.1836 114.255ZM70.2549 117.839C70.5005 118.162 70.6514 118.654 70.6699 119.015C70.6791 119.222 70.7655 119.326 70.916 119.326C71.0692 119.326 71.1738 119.155 71.1738 118.891C71.1737 118.472 70.7985 117.947 70.3135 117.765L70.2549 117.839ZM71.5547 117.433C71.7941 117.876 71.8463 118.336 71.8525 118.7V118.721C71.8525 118.94 71.9448 119.061 72.0859 119.061C72.2669 119.06 72.3799 118.874 72.3799 118.53C72.3798 118.145 72.1159 117.677 71.6309 117.362L71.5547 117.433ZM35.3828 118.349H40.1514V117.756H35.3828V118.349ZM86.8633 118.349H91.6318V117.756H86.8633V118.349ZM64.3564 116.323L64.3008 116.48C64.8289 116.75 65.2195 117.148 65.4189 117.43C65.5785 117.657 65.7167 117.893 65.8916 117.894C66.1587 117.894 66.3124 117.678 66.3125 117.4C66.3125 116.734 65.5324 116.282 64.3564 116.323ZM65.1943 114.307C65.7625 114.65 66.0758 114.986 66.2754 115.271C66.4443 115.533 66.5733 115.802 66.8096 115.802C67.0461 115.802 67.1992 115.615 67.1992 115.309C67.1992 114.65 66.444 114.162 65.2588 114.183L65.1943 114.307ZM59.2627 113.58C58.9305 114.035 57.2206 114.196 57.0488 114.196C56.5946 114.196 56.2631 114.188 55.9932 113.928L55.9531 113.969C55.993 114.532 56.4501 114.942 56.9902 114.942C57.5124 114.942 58.6458 114.639 59.3613 114.627C59.7174 114.619 60.2148 114.574 60.2148 114.292C60.2241 113.894 59.7234 113.655 59.2627 113.58ZM48.7734 2.44531C46.6485 2.44531 44.6803 3.15355 42.8594 4.55762C41.0386 5.96573 39.5216 7.93296 38.3086 10.4551C37.7006 11.7184 37.1845 12.932 36.7607 14.0957C36.337 15.2596 35.987 16.5727 35.7168 18.0264C35.4436 19.4843 35.2438 21.2115 35.124 23.1953C35.0012 25.1872 34.9424 27.5894 34.9424 30.4014C34.9424 33.5118 34.9705 36.1293 35.0352 38.2666C35.0904 40.4034 35.2741 42.2961 35.5811 43.9443C35.8821 45.5927 36.3556 47.0759 36.9912 48.3848C37.6269 49.6975 38.4901 51.0807 39.583 52.5342C38.4899 53.8927 37.627 55.2516 36.9912 56.6143C36.3557 57.9726 35.8821 59.5708 35.5811 61.418C35.274 63.2608 35.0904 65.5182 35.0352 68.1895C34.9707 70.8567 34.9424 74.1328 34.9424 78.0176C34.9424 81.2189 34.9858 83.8657 35.0811 85.9531C35.1701 88.0404 35.3083 89.859 35.4863 91.4121C35.6706 92.9653 35.9282 94.2742 36.2598 95.3428C36.5945 96.4112 37.006 97.5296 37.4912 98.6934C38.52 101.215 39.9761 103.378 41.8584 105.171C43.7376 106.968 46.0435 107.867 48.7734 107.867C51.5001 107.867 53.8031 106.968 55.6885 105.171C57.5645 103.378 59.02 101.215 60.0518 98.6934C60.5399 97.5297 60.9455 96.4113 61.2832 95.3428C61.6118 94.2742 61.8734 92.9652 62.0547 91.4121C62.2358 89.8591 62.3738 88.0405 62.4658 85.9531C62.5548 83.8657 62.5977 81.2188 62.5977 78.0176C62.5977 74.1328 62.5702 70.8566 62.5088 68.1895C62.4505 65.5183 62.2659 63.2608 61.9619 61.418C61.6609 59.5711 61.1913 57.9726 60.5527 56.6143C59.9139 55.2516 59.051 53.8926 57.9609 52.5342C59.0509 51.0806 59.914 49.6975 60.5527 48.3848C61.1915 47.0761 61.6609 45.5927 61.9619 43.9443C62.2659 42.2961 62.4505 40.4035 62.5088 38.2666C62.5703 36.1295 62.5977 33.5118 62.5977 30.4014C62.5977 27.5895 62.5397 25.1873 62.4199 23.1953C62.2971 21.2115 62.1001 19.4843 61.8301 18.0264C61.5567 16.5728 61.2038 15.2595 60.7832 14.0957C60.3563 12.932 59.8403 11.7184 59.2354 10.4551C58.0194 7.93293 56.5055 5.96576 54.6846 4.55762C52.8668 3.1536 50.8952 2.44534 48.7734 2.44531ZM66.1396 55.4463C65.8357 56.8046 65.5627 58.0924 65.3232 59.3057C65.0777 60.5192 64.8961 61.8784 64.7764 63.3818C64.6536 64.8892 64.5612 66.6824 64.5029 68.7695C64.4384 70.857 64.4141 73.5037 64.4141 76.7051C64.4141 80.101 64.4384 82.8924 64.5029 85.0791C64.5612 87.2617 64.669 89.1049 64.8193 90.6123C64.9698 92.1158 65.1848 93.4002 65.4551 94.4688C65.7284 95.5373 66.1063 96.6514 66.5977 97.8193C67.8074 100.926 69.4167 103.378 71.4189 105.171C73.418 106.968 75.6936 107.867 78.2422 107.867C80.7908 107.867 83.0787 106.993 85.1113 105.245C87.141 103.497 88.7616 101.02 89.9775 97.8193C90.4012 96.6514 90.7521 95.5374 91.0254 94.4688C91.2989 93.4003 91.5077 92.1158 91.6611 90.6123C91.8116 89.1048 91.9183 87.2615 91.9766 85.0791C92.038 82.8925 92.0693 80.101 92.0693 76.7051C92.0693 72.6298 92.038 69.2542 91.9766 66.5869C91.9183 63.9157 91.8116 61.7077 91.6611 59.96C91.5077 58.2125 91.3109 56.8045 91.0684 55.7402C90.8257 54.6717 90.4911 53.6029 90.0674 52.5342C89.2782 50.592 88.188 48.9937 86.7939 47.7305C85.397 46.4673 83.8798 45.837 82.2432 45.8369C81.2113 45.8369 80.3787 45.9578 79.7432 46.2021C79.1046 46.4425 78.632 46.7615 78.3311 47.1465L78.1494 46.8564L88.7031 3.31934H78.3311L66.1396 55.4463ZM48.7734 58.0674C49.983 58.0675 51.0452 58.7719 51.957 60.1797C52.8661 61.5878 53.3213 63.3111 53.3213 65.3486V85.7344C53.3212 87.7718 52.8659 89.4943 51.957 90.9023C51.0451 92.3104 49.9831 93.0145 48.7734 93.0146C47.5575 93.0146 46.4949 92.3105 45.5859 90.9023C44.6803 89.4943 44.2227 87.7717 44.2227 85.7344V65.3486C44.2227 63.3111 44.6801 61.5878 45.5859 60.1797C46.4949 58.7719 47.5575 58.0674 48.7734 58.0674ZM78.2412 58.9414C79.451 58.9414 80.5167 59.6211 81.4258 60.9795C82.3347 62.3379 82.789 64.1351 82.7891 66.3672V85.5889C82.7891 87.8211 82.3347 89.6142 81.4258 90.9727C80.5167 92.3353 79.451 93.0146 78.2412 93.0146C77.0254 93.0145 75.9666 92.3351 75.0547 90.9727C74.149 89.6141 73.6914 87.8212 73.6914 85.5889V66.3672C73.6914 64.1351 74.1489 62.3379 75.0547 60.9795C75.9665 59.6212 77.0254 58.9416 78.2412 58.9414ZM48.7734 17.2969C49.983 17.297 51.0452 18.0055 51.957 19.4092C52.8661 20.8173 53.3213 22.5405 53.3213 24.5781V39.7246C53.3213 41.7622 52.8659 43.4845 51.957 44.8926C51.0451 46.2966 49.9831 47.0009 48.7734 47.001C47.5575 47.001 46.4949 46.2967 45.5859 44.8926C44.6803 43.4845 44.2227 41.7621 44.2227 39.7246V24.5781C44.2227 22.5405 44.6801 20.8173 45.5859 19.4092C46.4948 18.0054 47.5576 17.2969 48.7734 17.2969Z" fill="black"/>
</svg>
