<svg width="30" height="29" viewBox="0 0 30 29" fill="none" xmlns="http://www.w3.org/2000/svg">
<path d="M0 14.571C0 12.9753 0.246413 11.4535 0.7393 10.0036C1.23219 8.54754 1.93046 7.21462 2.81355 6.00089C3.71718 4.77894 4.76464 3.72336 5.97632 2.83411C7.188 1.93664 8.5228 1.24259 9.98092 0.749704C11.439 0.250656 12.9793 0 14.5812 0C16.1831 0 17.7233 0.250656 19.1609 0.749704C20.619 1.24259 21.954 1.93664 23.1657 2.83411C24.3774 3.72336 25.4452 4.77894 26.3282 6.00089C27.2319 7.21462 27.9096 8.54754 28.4025 10.0036C28.8954 11.4535 29.1418 12.9753 29.1418 14.571C29.1418 15.947 28.9569 17.2654 28.5873 18.5305C28.2176 19.7956 27.7044 20.9806 27.0267 22.0835C26.349 23.1863 25.5479 24.1761 24.6238 25.051C24.5211 25.1454 24.4389 25.1907 24.3157 25.1824C24.213 25.1824 24.1308 25.1352 24.0281 25.0387L23.4327 24.3548C23.2684 24.1576 23.2682 23.9646 23.453 23.7818C24.254 23.0096 24.9523 22.1388 25.5478 21.1674C26.1434 20.196 26.6159 19.157 26.9444 18.0459C27.2525 16.9287 27.4168 15.7704 27.4168 14.571C27.4168 13.1663 27.2113 11.8252 26.78 10.5457C26.3282 9.26629 25.7123 8.0916 24.9319 7.02573C24.1309 5.95165 23.2068 5.02131 22.1389 4.23474C21.071 3.44201 19.8796 2.82802 18.6063 2.39263C17.333 1.9593 15.9777 1.74158 14.5812 1.74158C13.1641 1.74158 11.8293 1.9593 10.5355 2.39263C9.26217 2.82802 8.09139 3.44201 7.02347 4.23474C5.93501 5.02131 5.01086 5.95165 4.20992 7.02573C3.42952 8.0916 2.81363 9.26629 2.38235 10.5457C1.95108 11.8252 1.72503 13.1663 1.72503 14.571C1.72503 15.7704 1.88931 16.9246 2.2179 18.0356C2.54649 19.1446 2.99839 20.1858 3.59396 21.1572C4.18953 22.1265 4.88783 22.9993 5.68877 23.7715C5.85307 23.9625 5.87362 24.1535 5.70933 24.3445L5.09312 25.0161C5.01097 25.1208 4.90826 25.1722 4.80557 25.1722C4.70289 25.1783 4.60015 25.1311 4.49747 25.0284C3.57331 24.1535 2.77255 23.1677 2.11536 22.0711C1.43765 20.9682 0.924202 19.7853 0.554537 18.5202C0.184873 17.2551 0 15.9388 0 14.571ZM4.1485 14.571C4.1485 13.1375 4.43582 11.7924 4.96978 10.5335C5.50374 9.27659 6.24325 8.16959 7.20848 7.21463C8.17372 6.24939 9.2827 5.49571 10.5355 4.95148C11.7882 4.4093 13.1436 4.13622 14.5812 4.13622C16.0188 4.13622 17.3536 4.4093 18.6269 4.95148C19.8796 5.49571 20.9886 6.24939 21.9333 7.21463C22.8985 8.16959 23.6381 9.27659 24.1926 10.5335C24.7265 11.7924 25.0138 13.1375 25.0138 14.571C25.0138 16.0127 24.7265 17.3661 24.172 18.6312C23.6175 19.888 22.8371 20.9868 21.8924 21.9294C21.7898 22.0321 21.687 22.0793 21.5843 22.0711C21.4611 22.0649 21.3584 22.0135 21.2762 21.917L20.66 21.2455C20.4957 21.0607 20.4958 20.8655 20.6806 20.6602C21.4815 19.888 22.0977 18.9803 22.5701 17.935C23.0219 16.8835 23.2683 15.7622 23.2683 14.571C23.2683 13.3799 23.0424 12.2627 22.5701 11.2174C22.1388 10.1659 21.5021 9.2437 20.7011 8.44892C19.9002 7.64798 18.9761 7.01962 17.9287 6.5637C16.8813 6.10778 15.7723 5.8798 14.5812 5.8798C13.39 5.8798 12.2605 6.10778 11.2131 6.5637C10.1657 7.01962 9.24159 7.64798 8.44065 8.44892C7.63971 9.2437 7.02353 10.1659 6.57172 11.2174C6.11991 12.2627 5.89409 13.3799 5.89409 14.571C5.89409 15.756 6.11991 16.8732 6.57172 17.9247C7.04407 18.9762 7.66027 19.8838 8.46121 20.6499C8.6255 20.8614 8.6255 21.0566 8.46121 21.2332L7.86556 21.8842C7.78341 21.9869 7.68067 22.0423 7.55745 22.0505C7.43423 22.0505 7.35228 22.0012 7.2496 21.9067C6.28436 20.9661 5.54483 19.8655 4.99033 18.6086C4.43584 17.3517 4.1485 16.0045 4.1485 14.571ZM8.29675 14.571C8.29675 13.7105 8.46126 12.9014 8.76931 12.1435C9.0979 11.3878 9.54955 10.7183 10.1451 10.1371C10.7202 9.55591 11.3775 9.10407 12.1374 8.77959C12.9178 8.44895 13.7186 8.28459 14.5812 8.28459C15.4437 8.28459 16.2448 8.44895 17.0046 8.77959C17.7645 9.10407 18.4422 9.55591 19.0172 10.1371C19.5923 10.7183 20.0441 11.3878 20.3522 12.1435C20.7013 12.9014 20.8656 13.7105 20.8656 14.571C20.8656 15.3802 20.7011 16.1442 20.393 16.865C20.085 17.5859 19.6537 18.2143 19.1198 18.7524C19.0376 18.8694 18.9351 18.929 18.8119 18.929C18.7092 18.929 18.6065 18.8735 18.5244 18.7626L17.8876 18.1116C17.7438 17.9432 17.7233 17.7563 17.867 17.5489C18.2572 17.1751 18.5654 16.7294 18.7913 16.214C19.0173 15.6923 19.1198 15.144 19.1198 14.571C19.1198 13.7475 18.9145 12.9896 18.5038 12.2996C18.0931 11.6075 17.5385 11.0551 16.8607 10.6444C16.1625 10.2316 15.4027 10.0262 14.5812 10.0262C13.7597 10.0262 12.9793 10.2316 12.3016 10.6444C11.6239 11.0551 11.0693 11.6075 10.6585 12.2996C10.2478 12.9896 10.0426 13.7475 10.0426 14.571C10.0426 15.144 10.1451 15.6882 10.3504 16.2037C10.5764 16.7109 10.8845 17.1525 11.2542 17.5283C11.398 17.7337 11.3979 17.9206 11.2336 18.089L10.6174 18.74C10.5353 18.8426 10.4123 18.8981 10.3096 18.9063C10.1864 18.9063 10.0836 18.8509 10.0015 18.74C9.48805 18.2039 9.05681 17.5797 8.74875 16.865C8.4407 16.1442 8.29675 15.3802 8.29675 14.571ZM5.75019 28.6799C5.44214 28.6799 5.23694 28.5505 5.15479 28.2938C5.05211 28.0351 5.09307 27.7926 5.29844 27.5647L13.965 17.7378C14.1293 17.5673 14.3347 17.4831 14.5606 17.4831C14.7865 17.4831 14.992 17.5673 15.1357 17.7378L23.8228 27.5647C24.0076 27.7865 24.0691 28.0247 23.9664 28.2814C23.8638 28.5463 23.6585 28.6799 23.3505 28.6799H5.75019Z" fill="white"/>
</svg>
