<svg width="23" height="19" viewBox="0 0 23 19" fill="none" xmlns="http://www.w3.org/2000/svg">
<path opacity="0.5" d="M15.235 14.1424C14.9919 13.9743 14.8704 13.7478 14.8248 13.4664C14.7944 13.185 14.8704 12.8919 15.0527 12.5889C15.3109 12.1659 15.5083 11.6864 15.6602 11.1519C15.8121 10.609 15.8881 10.0412 15.8881 9.45003C15.8881 8.85723 15.8121 8.29113 15.6602 7.74829C15.5235 7.20544 15.3109 6.72582 15.0527 6.31119C14.8552 6.0148 14.7793 5.72507 14.8248 5.44365C14.8704 5.15558 14.9919 4.92585 15.235 4.756C15.4325 4.60947 15.6602 4.55949 15.8881 4.60945C16.1311 4.65774 16.3286 4.79596 16.4653 5.02076C16.8602 5.59191 17.164 6.26465 17.3766 7.04061C17.6045 7.80825 17.711 8.61079 17.711 9.45003C17.711 10.2876 17.6045 11.0919 17.3766 11.8595C17.164 12.6272 16.8602 13.2966 16.4653 13.8677C16.3286 14.1008 16.1311 14.2407 15.8881 14.2906C15.6602 14.3322 15.4325 14.284 15.235 14.1424ZM19.0779 16.9649C18.8501 16.81 18.7286 16.5953 18.6982 16.3205C18.6526 16.0391 18.7286 15.7593 18.8957 15.4846C19.3969 14.6537 19.7919 13.7195 20.0805 12.6838C20.3691 11.6481 20.5059 10.5707 20.5059 9.45003C20.5059 8.32938 20.3691 7.25037 20.0805 6.21464C19.8071 5.17225 19.4121 4.23809 18.8957 3.41384C18.7134 3.13909 18.6526 2.86434 18.683 2.58959C18.7133 2.30818 18.8501 2.09004 19.0779 1.93518C19.2906 1.78032 19.5185 1.73038 19.7616 1.787C20.0046 1.83529 20.2021 1.98017 20.354 2.21995C20.9768 3.18574 21.4628 4.29804 21.8122 5.56023C22.1464 6.81409 22.3286 8.11124 22.3286 9.45003C22.3286 10.7888 22.1464 12.0843 21.8122 13.3398C21.4628 14.587 20.9768 15.6994 20.354 16.6802C20.2021 16.9183 20.0046 17.0631 19.7616 17.1131C19.5185 17.1614 19.2906 17.1131 19.0779 16.9649Z" fill="white"/>
<path d="M10.5418 18.9195C10.2988 18.9195 10.071 18.8596 9.84312 18.7397C9.63046 18.6282 9.40268 18.4483 9.15964 18.2019L5.13424 14.0156C5.07348 13.959 4.99749 13.9308 4.90635 13.9308H2.17207C1.47333 13.9308 0.926585 13.7192 0.562024 13.2963C0.182273 12.8733 0 12.2506 0 11.4263V7.50489C0 6.6873 0.182273 6.06786 0.562024 5.64491C0.926585 5.22196 1.47333 5.01041 2.17207 5.01041H4.90635C4.99749 5.01041 5.07348 4.97886 5.13424 4.91559L9.15964 0.782575C9.43306 0.507824 9.67606 0.309742 9.87353 0.189851C10.071 0.0632987 10.2836 0 10.5266 0C10.8912 0 11.1951 0.138184 11.4381 0.412935C11.666 0.687686 11.7875 1.02243 11.7875 1.41707V17.5558C11.7875 17.9438 11.666 18.2685 11.4381 18.5282C11.2103 18.7897 10.9064 18.9195 10.5418 18.9195Z" fill="white"/>
</svg>
