<svg width="37" height="21" viewBox="0 0 37 21" fill="none" xmlns="http://www.w3.org/2000/svg">
<path d="M36.4718 18.3567C36.4718 19.0731 36.2815 19.6085 35.9009 19.963C35.5203 20.3242 35.0719 20.5052 34.5558 20.5052C34.0913 20.5052 33.6397 20.3762 33.2011 20.1183L19.702 12.2409C19.2052 11.9512 18.8278 11.6541 18.5697 11.3509C18.3182 11.0478 18.1924 10.6835 18.1924 10.2575C18.1924 9.82534 18.3182 9.45739 18.5697 9.15423C18.8278 8.85106 19.2052 8.55461 19.702 8.26428L33.2011 0.386899C33.6397 0.128964 34.0913 0 34.5558 0C35.0719 0 35.5203 0.180917 35.9009 0.542147C36.2815 0.896653 36.4718 1.43209 36.4718 2.14844V18.3567ZM18.2795 18.3567C18.2795 19.0731 18.0891 19.6085 17.7085 19.963C17.3279 20.3242 16.8795 20.5052 16.3635 20.5052C15.9054 20.5052 15.4539 20.3762 15.0087 20.1183L1.51924 12.2409C1.02251 11.9512 0.645141 11.6541 0.387085 11.3509C0.129029 11.0478 0 10.6835 0 10.2575C0 9.82534 0.129029 9.45739 0.387085 9.15423C0.645141 8.85106 1.02251 8.55461 1.51924 8.26428L15.0087 0.386899C15.4539 0.128964 15.9054 0 16.3635 0C16.8795 0 17.3279 0.180917 17.7085 0.542147C18.0891 0.896653 18.2795 1.43209 18.2795 2.14844V18.3567Z" fill="white"/>
</svg>
