<svg width="37" height="21" viewBox="0 0 37 21" fill="none" xmlns="http://www.w3.org/2000/svg">
<path d="M0 18.3567V2.14844C0 1.43209 0.190092 0.896653 0.570881 0.542147C0.951671 0.180917 1.40275 0 1.92534 0C2.38376 0 2.83177 0.128964 3.27063 0.386899L16.77 8.26428C17.2663 8.55461 17.641 8.85106 17.8922 9.15423C18.1501 9.45739 18.2791 9.82534 18.2791 10.2575C18.2791 10.6835 18.1501 11.0478 17.8922 11.3509C17.641 11.6541 17.2663 11.9512 16.77 12.2409L3.27063 20.1183C2.83177 20.3762 2.38376 20.5052 1.92534 20.5052C1.40275 20.5052 0.951671 20.3242 0.570881 19.963C0.190092 19.6085 0 19.0731 0 18.3567ZM18.1923 18.3567V2.14844C18.1923 1.43209 18.3824 0.896653 18.7632 0.542147C19.144 0.180917 19.592 0 20.1085 0C20.5663 0 21.018 0.128964 21.4629 0.386899L34.9623 8.26428C35.4525 8.55461 35.8266 8.85106 36.0845 9.15423C36.3424 9.45739 36.472 9.82534 36.472 10.2575C36.472 10.6835 36.3424 11.0478 36.0845 11.3509C35.8266 11.6541 35.4525 11.9512 34.9623 12.2409L21.4629 20.1183C21.018 20.3762 20.5663 20.5052 20.1085 20.5052C19.592 20.5052 19.144 20.3242 18.7632 19.963C18.3824 19.6085 18.1923 19.0731 18.1923 18.3567Z" fill="white"/>
</svg>
