<svg width="34" height="38" viewBox="0 0 34 38" fill="none" xmlns="http://www.w3.org/2000/svg">
<path d="M0 33.2038V3.87085C0 2.58057 0.342898 1.61301 1.02807 0.967564C1.71386 0.322728 2.5335 0 3.48761 0C4.32131 0 5.14096 0.228601 5.94715 0.685793L30.3409 14.9186C31.2681 15.4559 31.9606 16.0005 32.4172 16.5518C32.8744 17.0891 33.103 17.7547 33.103 18.5474C33.103 19.3133 32.8744 19.9789 32.4172 20.5431C31.9606 21.0944 31.2681 21.6316 30.3409 22.1561L5.94715 36.3889C5.14096 36.8595 4.32131 37.0942 3.48761 37.0942C2.5335 37.0942 1.71386 36.7654 1.02807 36.1065C0.342898 35.4617 0 34.4941 0 33.2038Z" fill="white"/>
</svg>
