<svg width="86" height="43" viewBox="0 0 86 43" fill="none" xmlns="http://www.w3.org/2000/svg">
<path d="M15.6246 41.0564C13.7906 41.0564 12.1358 40.9533 10.66 40.747C9.18422 40.5555 7.85889 40.1947 6.68398 39.6642C5.50909 39.1488 4.44167 38.4047 3.48169 37.4324C2.55037 36.4749 1.83398 35.3995 1.3325 34.2062C0.831021 32.9984 0.479986 31.6358 0.279394 30.1183C0.0931316 28.6011 0 26.8995 0 25.014V15.9762C0 13.1772 0.229247 10.7834 0.687741 8.79464C1.14624 6.79118 2.08472 5.06759 3.50319 3.62391C4.90733 2.18025 6.59085 1.21534 8.55378 0.729203C10.5167 0.243069 12.845 0 15.5387 0H58.8663C60.7003 0 62.3553 0.10312 63.831 0.30936C65.3069 0.500867 66.6322 0.861786 67.807 1.39212C68.9819 1.90772 70.0494 2.65165 71.0092 3.62391C71.9407 4.58146 72.657 5.66422 73.1585 6.87219C73.6598 8.06544 74.0039 9.42073 74.1901 10.9381C74.3907 12.4554 74.491 14.1569 74.491 16.0425V25.014C74.491 26.8995 74.3907 28.6011 74.1901 30.1183C74.0039 31.621 73.6598 32.9763 73.1585 34.1843C72.657 35.3922 71.9407 36.4749 71.0092 37.4324C70.0636 38.4047 68.9963 39.1488 67.807 39.6642C66.6322 40.1947 65.3069 40.5555 63.831 40.747C62.3553 40.9533 60.7003 41.0564 58.8663 41.0564H15.6246ZM14.8509 34.5156H59.64C61.1303 34.5156 62.4484 34.383 63.5947 34.1179C64.7409 33.8528 65.6578 33.3593 66.3456 32.6373C67.0188 31.9304 67.4847 31.0022 67.7426 29.8532C68.0004 28.7042 68.1294 27.3563 68.1294 25.8093V15.2691C68.1294 13.7076 68.0004 12.3523 67.7426 11.2032C67.4988 10.0542 67.0332 9.11874 66.3456 8.3969C65.6435 7.6898 64.7194 7.20364 63.5731 6.9385C62.4412 6.67333 61.1303 6.54073 59.64 6.54073H14.9154C13.3966 6.54073 12.057 6.67333 10.8964 6.9385C9.75016 7.18893 8.83318 7.67506 8.14543 8.3969C7.4577 9.11874 6.98488 10.0615 6.72697 11.2253C6.48341 12.3891 6.3616 13.7591 6.3616 15.3354V25.8093C6.3616 27.3563 6.48341 28.7042 6.72697 29.8532C6.98488 31.0022 7.4577 31.9304 8.14543 32.6373C8.8475 33.3593 9.7645 33.8528 10.8964 34.1179C12.0283 34.383 13.3465 34.5156 14.8509 34.5156ZM78.7033 28.5937V12.4628C79.5058 12.5217 80.3368 12.89 81.1965 13.5676C82.0705 14.2453 82.8083 15.1807 83.4102 16.3739C84.0262 17.5525 84.3343 18.9372 84.3343 20.5282C84.3343 22.1192 84.0262 23.5113 83.4102 24.7046C82.8083 25.8832 82.0705 26.8185 81.1965 27.5109C80.3368 28.1885 79.5058 28.5494 78.7033 28.5937Z" fill="black" fill-opacity="0.75"/>
<path d="M12.962 30.7946C13.6645 30.9316 14.557 31 15.6392 31H58.3608C59.462 31 60.3544 30.9316 61.0381 30.7946C61.7215 30.6425 62.2913 30.3837 62.7468 30.0185C63.2027 29.6534 63.5254 29.1968 63.7154 28.6491C63.9051 28.0859 64 27.3706 64 26.5033V14.4968C64 13.6294 63.9051 12.9217 63.7154 12.3739C63.5254 11.8109 63.2027 11.3468 62.7468 10.9815C62.3103 10.6315 61.7405 10.3805 61.0381 10.2283C60.3354 10.0761 59.4433 10 58.3608 10H15.7247C14.6044 10 13.6836 10.0761 12.962 10.2283C12.2595 10.3652 11.6899 10.6087 11.2532 10.9587C10.7975 11.3239 10.4747 11.7957 10.2848 12.3739C10.0949 12.937 10 13.6674 10 14.5652V26.5033C10 27.3706 10.0949 28.0859 10.2848 28.6491C10.4747 29.1968 10.7975 29.6534 11.2532 30.0185C11.7089 30.3837 12.2785 30.6425 12.962 30.7946Z" fill="black" fill-opacity="0.6"/>
</svg>
