<svg width="30" height="48" viewBox="0 0 30 48" fill="none" xmlns="http://www.w3.org/2000/svg">
<path fill-rule="evenodd" clip-rule="evenodd" d="M17.1395 18.2948V7.69722L23.602 13.0406L17.1395 18.2948ZM17.1395 40.2604V29.6628L23.602 34.9171L17.1395 40.2604ZM11.7111 44.8349C11.7111 47.8242 15.4343 48.9558 17.8588 46.8723L28.5375 37.7248C29.5249 36.9099 29.9728 35.8228 29.9728 34.7356C29.9728 33.6485 29.48 32.5613 28.4925 31.7908L18.8446 23.9565L28.4925 16.1206C29.48 15.3056 29.9279 14.2185 29.9728 13.1776C29.9728 12.1349 29.5249 11.0477 28.5375 10.1883L17.8588 1.08363C15.391 -1.04444 11.7111 0.133409 11.7111 3.12264V18.567L4.48761 12.5423C3.9481 12.0904 3.32037 11.8627 2.64764 11.8627C1.16732 11.8627 0 13.0405 0 14.5352C0 15.3501 0.314669 16.1668 1.07731 16.754L10.0059 24.0011L1.07731 31.2482C0.314669 31.8371 0 32.652 0 33.4669C0 35.0968 1.21228 36.1395 2.64764 36.1395C3.27541 36.1395 3.9481 35.9135 4.48761 35.4598L11.7111 29.4368V44.8349Z" fill="white"/>
</svg>
