<svg width="25" height="25" viewBox="0 0 25 25" fill="none" xmlns="http://www.w3.org/2000/svg">
<path opacity="0.5" d="M12.152 4.58534C11.8482 4.58534 11.59 4.47294 11.3773 4.24961C11.1647 4.02471 11.0584 3.7592 11.0584 3.45309V1.12138C11.0584 0.815275 11.1647 0.552911 11.3773 0.335824C11.59 0.11249 11.8482 0 12.152 0C12.4558 0 12.6989 0.11249 12.9115 0.335824C13.1242 0.552911 13.2457 0.815275 13.2457 1.12138V3.45309C13.2457 3.7592 13.1242 4.02471 12.9115 4.24961C12.6989 4.47294 12.4558 4.58534 12.152 4.58534ZM17.59 6.91714C17.3925 6.70786 17.2863 6.44549 17.2863 6.13158C17.2863 5.81766 17.3925 5.55367 17.59 5.33658L19.2154 3.67643C19.4129 3.4609 19.6711 3.35157 19.9749 3.35157C20.2787 3.34376 20.537 3.44838 20.7496 3.66547C20.9623 3.88255 21.0686 4.14807 21.0686 4.46199C21.0686 4.77591 20.9623 5.04142 20.7496 5.25851L19.1546 6.91714C18.942 7.14047 18.6837 7.25287 18.3799 7.25287C18.0609 7.24506 17.8027 7.13422 17.59 6.91714ZM19.8533 12.5005C19.8533 12.1928 19.9597 11.9319 20.1572 11.7149C20.3851 11.4915 20.6433 11.3791 20.9471 11.3791H23.2104C23.5142 11.3791 23.7725 11.4915 23.9699 11.7149C24.1978 11.9319 24.3041 12.1928 24.3041 12.5005C24.3041 12.8066 24.1978 13.0674 23.9699 13.2844C23.7725 13.5015 23.5142 13.6093 23.2104 13.6093H20.9471C20.6433 13.6093 20.3851 13.5015 20.1572 13.2844C19.9597 13.0674 19.8533 12.8066 19.8533 12.5005ZM17.59 18.0823C17.8027 17.873 18.0609 17.7684 18.3647 17.7684C18.6685 17.7684 18.9268 17.873 19.1394 18.0823L20.7496 19.7424C20.9623 19.9517 21.0686 20.2125 21.0686 20.5264C21.0686 20.8404 20.9623 21.1059 20.7649 21.323C20.5522 21.5322 20.2939 21.6369 19.9901 21.6369C19.6863 21.6447 19.4281 21.5463 19.2306 21.3448L17.59 19.6628C17.3925 19.4535 17.2863 19.1958 17.2863 18.8897C17.2863 18.5757 17.3925 18.3072 17.59 18.0823ZM12.152 20.414C12.4558 20.414 12.6989 20.5233 12.9115 20.7388C13.1242 20.9637 13.2457 21.2292 13.2457 21.5353V23.8671C13.2457 24.1732 13.1242 24.4355 12.9115 24.6526C12.6989 24.8759 12.4558 24.9884 12.152 24.9884C11.8482 24.9884 11.59 24.8759 11.3773 24.6526C11.1647 24.4355 11.0584 24.1732 11.0584 23.8671V21.5353C11.0584 21.2292 11.1647 20.9637 11.3773 20.7388C11.59 20.5233 11.8482 20.414 12.152 20.414ZM6.71407 18.0823C6.91154 18.3072 7.01779 18.5757 7.01779 18.8897C7.01779 19.1958 6.91152 19.4535 6.69886 19.6628L5.07342 21.3338C4.87595 21.5353 4.61771 21.6322 4.29872 21.6259C3.99491 21.6259 3.73667 21.5213 3.52401 21.312C3.32654 21.0949 3.23549 20.8294 3.23549 20.5155C3.23549 20.2016 3.34176 19.9392 3.55442 19.7299L5.14945 18.0823C5.36211 17.873 5.62035 17.7684 5.92415 17.7684C6.24314 17.7684 6.5014 17.873 6.71407 18.0823ZM4.45076 12.5005C4.45076 12.8066 4.34431 13.0674 4.13165 13.2844C3.9038 13.5015 3.64555 13.6093 3.35694 13.6093H1.07843C0.789823 13.6093 0.531592 13.5015 0.318932 13.2844C0.106271 13.0674 0 12.8066 0 12.5005C0 12.1928 0.106271 11.9319 0.318932 11.7149C0.531592 11.4915 0.789823 11.3791 1.07843 11.3791H3.35694C3.64555 11.3791 3.9038 11.4915 4.13165 11.7149C4.34431 11.9319 4.45076 12.1928 4.45076 12.5005ZM6.69886 6.91714C6.4862 7.13422 6.22795 7.242 5.92415 7.242C5.62035 7.242 5.36211 7.13422 5.14945 6.91714L3.55442 5.24602C3.34176 5.03675 3.25069 4.77591 3.25069 4.46199C3.25069 4.14807 3.35695 3.88255 3.55442 3.66547C3.76708 3.44838 4.02532 3.34376 4.32912 3.35157C4.64812 3.35938 4.89117 3.46715 5.10383 3.67643L6.71407 5.33658C6.91154 5.54586 7.01779 5.81141 7.01779 6.13158C7.01779 6.44549 6.91152 6.70786 6.69886 6.91714Z" fill="white"/>
<path d="M12.1526 18.3521C11.3628 18.3521 10.6185 18.2022 9.93495 17.9039C9.2362 17.5962 8.62849 17.1776 8.11203 16.6482C7.59557 16.1093 7.18553 15.4847 6.88173 14.7756C6.59312 14.065 6.44116 13.306 6.44116 12.5002C6.44116 11.6849 6.59312 10.9258 6.88173 10.2246C7.18553 9.514 7.59557 8.89394 8.11203 8.36294C8.62849 7.82413 9.2362 7.40249 9.93495 7.09638C10.6185 6.79027 11.3628 6.63721 12.1526 6.63721C12.9273 6.63721 13.6716 6.79027 14.3703 7.09638C15.0539 7.40249 15.6616 7.82413 16.178 8.36294C16.7097 8.89394 17.1045 9.514 17.4083 10.2246C17.6969 10.9258 17.8489 11.6849 17.8489 12.5002C17.8489 13.306 17.6969 14.065 17.4083 14.7756C17.1045 15.4847 16.7097 16.1093 16.178 16.6482C15.6616 17.1776 15.0539 17.5962 14.3703 17.9039C13.6716 18.2022 12.9273 18.3521 12.1526 18.3521Z" fill="white"/>
</svg>
