<svg width="44" height="59" viewBox="0 0 44 59" fill="none" xmlns="http://www.w3.org/2000/svg">
<path fill-rule="evenodd" clip-rule="evenodd" d="M29.9728 0C34.6353 0 36.9665 -2.92872e-05 38.7482 0.933036C40.3135 1.75311 41.589 3.06453 42.3866 4.67385C43.2941 6.50574 43.2941 8.90264 43.2941 13.6964V44.5132C43.2941 49.3069 43.2941 51.7038 42.3866 53.5357C41.589 55.145 40.3135 56.4564 38.7482 57.2765C36.9665 58.2096 34.6353 58.2095 29.9728 58.2095H13.3213C8.65882 58.2095 6.32756 58.2096 4.54585 57.2765C2.9806 56.4564 1.70509 55.145 0.907482 53.5357C-2.84851e-05 51.7038 0 49.3069 0 44.5132V13.6964C0 8.90264 -2.84851e-05 6.50574 0.907482 4.67385C1.70509 3.06453 2.9806 1.75311 4.54585 0.933036C6.32756 -2.92872e-05 8.65882 0 13.3213 0H29.9728ZM10.8235 42.8011C9.44477 42.8011 8.32578 43.9516 8.32578 45.3692C8.32578 46.7868 9.44477 47.9373 10.8235 47.9373H22.4796C23.8584 47.9373 24.9774 46.7868 24.9774 45.3692C24.9774 43.9516 23.8584 42.8011 22.4796 42.8011H10.8235ZM31.8045 42.8011C30.424 42.8011 29.3067 43.9516 29.3067 45.3692C29.3067 46.7868 30.424 47.9373 31.8045 47.9373C33.1832 47.9373 34.3022 46.7868 34.3022 45.3692C34.3022 43.9516 33.1832 42.8011 31.8045 42.8011ZM10.8235 32.5289C9.44477 32.5289 8.32578 33.6794 8.32578 35.0969C8.32578 36.5145 9.44477 37.665 10.8235 37.665C12.2023 37.665 13.3213 36.5145 13.3213 35.0969C13.3213 33.6794 12.2023 32.5289 10.8235 32.5289ZM21.314 32.5289C19.9336 32.5289 18.8163 33.6794 18.8163 35.0969C18.8163 36.5145 19.9336 37.665 21.314 37.665C22.6927 37.665 23.8117 36.5145 23.8117 35.0969C23.8117 33.6794 22.6927 32.5289 21.314 32.5289ZM31.8045 32.5289C30.424 32.5289 29.3067 33.6794 29.3067 35.0969C29.3067 36.5145 30.424 37.665 31.8045 37.665C33.1832 37.665 34.3022 36.5145 34.3022 35.0969C34.3022 33.6794 33.1832 32.5289 31.8045 32.5289ZM10.8235 22.2566C9.44477 22.2566 8.32578 23.4071 8.32578 24.8247C8.32578 26.2422 9.44477 27.3927 10.8235 27.3927C12.2023 27.3927 13.3213 26.2422 13.3213 24.8247C13.3213 23.4071 12.2023 22.2566 10.8235 22.2566ZM21.314 22.2566C19.9336 22.2566 18.8163 23.4071 18.8163 24.8247C18.8163 26.2422 19.9336 27.3927 21.314 27.3927C22.6927 27.3927 23.8117 26.2422 23.8117 24.8247C23.8117 23.4071 22.6927 22.2566 21.314 22.2566ZM31.8045 22.2566C30.424 22.2566 29.3067 23.4071 29.3067 24.8247C29.3067 26.2422 30.424 27.3927 31.8045 27.3927C33.1832 27.3927 34.3022 26.2422 34.3022 24.8247C34.3022 23.4071 33.1832 22.2566 31.8045 22.2566ZM10.8235 8.56023C10.0492 8.56023 9.66292 8.56027 9.33988 8.62533C8.01941 8.89583 6.98704 9.95727 6.72394 11.3149C6.66067 11.6471 6.66063 12.0442 6.66063 12.8403C6.66063 13.6364 6.66067 14.0336 6.72394 14.3658C6.98704 15.7234 8.01941 16.7849 9.33988 17.0554C9.66292 17.1204 10.0492 17.1205 10.8235 17.1205H32.4706C33.2449 17.1205 33.6312 17.1204 33.9542 17.0554C35.2747 16.7849 36.307 15.7234 36.5701 14.3658C36.6334 14.0336 36.6334 13.6364 36.6334 12.8403C36.6334 12.0442 36.6334 11.6471 36.5701 11.3149C36.307 9.95727 35.2747 8.89583 33.9542 8.62533C33.6312 8.56027 33.2449 8.56023 32.4706 8.56023H10.8235Z" fill="white"/>
</svg>
