<svg width="51" height="53" viewBox="0 0 51 53" fill="none" xmlns="http://www.w3.org/2000/svg">
<path d="M36.6841 23.0463C37.1503 23.0463 37.5332 22.8786 37.8663 22.5448C38.1993 22.2041 38.3659 21.7932 38.3659 21.3104C38.3659 20.843 38.1993 20.4389 37.8663 20.0964C37.5332 19.7557 37.1337 19.5846 36.6841 19.5846C36.2178 19.5846 35.8182 19.7557 35.4852 20.0964C35.1522 20.4389 34.9856 20.843 34.9856 21.3104C34.9856 21.7932 35.1522 22.2041 35.4852 22.5448C35.8182 22.8786 36.2178 23.0463 36.6841 23.0463ZM14.9037 37.9634C13.505 37.9634 12.4394 37.5885 11.7067 36.8403C10.9741 36.0904 10.6077 35.0032 10.6077 33.5788V19.9561C10.6077 18.5385 10.9741 17.4548 11.7067 16.7066C12.4394 15.9568 13.505 15.5835 14.9037 15.5835H17.9511C18.2674 15.5835 18.5338 15.563 18.7503 15.5219C18.9501 15.4756 19.1499 15.3953 19.3331 15.2823C19.4996 15.1607 19.6994 14.9877 19.9158 14.76L20.9151 13.7174C21.1482 13.476 21.3812 13.2825 21.6143 13.1353C21.8641 12.9881 22.1472 12.8768 22.4469 12.8049C22.7466 12.7313 23.113 12.6936 23.5293 12.6936H28.8577C29.274 12.6936 29.6237 12.7313 29.9401 12.8049C30.2398 12.8768 30.5062 12.9881 30.756 13.1353C30.9891 13.2825 31.2223 13.476 31.4555 13.7174L32.4545 14.76C32.671 14.9877 32.8708 15.1607 33.0539 15.2823C33.2205 15.3953 33.4202 15.4756 33.62 15.5219C33.8365 15.563 34.1031 15.5835 34.4362 15.5835H37.55C38.9321 15.5835 39.9976 15.9568 40.7303 16.7066C41.463 17.4548 41.846 18.5385 41.846 19.9561V33.5788C41.846 35.0032 41.463 36.0904 40.7303 36.8403C39.9976 37.5885 38.9321 37.9634 37.55 37.9634H14.9037ZM26.2268 33.709C27.1593 33.709 28.0251 33.5292 28.8411 33.1679C29.657 32.8135 30.373 32.3222 30.9725 31.6939C31.5886 31.0588 32.0715 30.3226 32.4212 29.4871C32.7709 28.6431 32.9541 27.7408 32.9541 26.7786C32.9541 25.8147 32.7709 24.9159 32.4378 24.0787C32.0882 23.2433 31.6053 22.5071 30.9892 21.8719C30.3731 21.2367 29.657 20.742 28.8411 20.3876C28.0251 20.0263 27.1593 19.8465 26.2268 19.8465C25.2944 19.8465 24.4285 20.0263 23.596 20.3876C22.7967 20.742 22.0806 21.2367 21.4479 21.8719C20.8484 22.5071 20.3655 23.2433 20.0158 24.0787C19.6828 24.9159 19.4995 25.8147 19.4995 26.7786C19.4995 27.7408 19.6828 28.6431 20.0158 29.4871C20.3655 30.3226 20.8484 31.0588 21.4479 31.6939C22.0806 32.3222 22.7967 32.8135 23.596 33.1679C24.4285 33.5292 25.2944 33.709 26.2268 33.709ZM26.2268 31.081C25.644 31.081 25.1112 30.9714 24.595 30.7505C24.0955 30.5228 23.6625 30.2147 23.2628 29.8277C22.8965 29.4323 22.5967 28.9752 22.3802 28.453C22.1638 27.9308 22.0473 27.3727 22.0473 26.7786C22.0473 26.1828 22.1638 25.6247 22.3802 25.1025C22.5967 24.5803 22.8965 24.1232 23.2628 23.7277C23.6625 23.334 24.0955 23.0258 24.595 22.805C25.1112 22.5841 25.644 22.4745 26.2268 22.4745C26.8096 22.4745 27.3425 22.5841 27.842 22.805C28.3582 23.0258 28.7912 23.334 29.1742 23.7277C29.5572 24.1232 29.857 24.5803 30.0735 25.1025C30.2899 25.6247 30.3897 26.1828 30.3897 26.7786C30.3897 27.3727 30.2899 27.9308 30.0735 28.453C29.857 28.9752 29.5572 29.4323 29.1742 29.8277C28.7912 30.2147 28.3582 30.5228 27.842 30.7505C27.3425 30.9714 26.8096 31.081 26.2268 31.081Z" fill="white"/>
<path d="M0 46.8826V37.2935C0 36.1122 0.932488 35.1535 2.08145 35.1535C3.2304 35.1535 4.16289 36.1122 4.16289 37.2935V46.8826L4.17956 47.0949C4.27947 47.576 4.69573 47.9373 5.19528 47.9373H14.5201L14.7199 47.9493C15.769 48.0589 16.6016 48.9696 16.6016 50.0773C16.6016 51.185 15.769 52.0958 14.7199 52.2054L14.5201 52.2174H5.19528C2.41447 52.2174 0.149864 49.9746 0 47.1566V46.8826ZM46.6244 46.8826V37.2935C46.6244 36.1122 47.5569 35.1535 48.7058 35.1535C49.8548 35.1535 50.7873 36.1122 50.7873 37.2935V46.8826V47.1566C50.6541 49.8839 48.5227 52.0718 45.8585 52.2105L45.592 52.2174H36.2672C35.1182 52.2174 34.1857 51.2586 34.1857 50.0773C34.1857 48.896 35.1182 47.9373 36.2672 47.9373H45.592L45.8085 47.915C46.2081 47.8311 46.5245 47.5058 46.6077 47.0949L46.6244 46.8826ZM0 14.9239V5.33478C0 2.38835 2.33121 0 5.19528 0H14.5201L14.7199 0.0120169C15.769 0.121588 16.6016 1.03236 16.6016 2.14006C16.6016 3.24775 15.769 4.15853 14.7199 4.2681L14.5201 4.28011H5.19528C4.62913 4.28011 4.16289 4.75269 4.16289 5.33478V14.9239C4.16289 16.1052 3.2304 17.0639 2.08145 17.0639C0.932488 17.0639 0 16.1052 0 14.9239ZM46.6244 14.9239V5.33478C46.6244 4.82459 46.2747 4.39996 45.8085 4.30237L45.592 4.28011H36.2672C35.1182 4.28011 34.1857 3.32137 34.1857 2.14006C34.1857 0.958746 35.1182 0 36.2672 0H45.592L45.8585 0.00689667C48.606 0.148996 50.7873 2.4808 50.7873 5.33478V14.9239C50.7873 16.1052 49.8548 17.0639 48.7058 17.0639C47.5569 17.0639 46.6244 16.1052 46.6244 14.9239Z" fill="white" fill-opacity="0.5"/>
</svg>
