<svg width="601" height="601" viewBox="0 0 601 601" fill="none" xmlns="http://www.w3.org/2000/svg">
<path d="M590.335 9.76325C577.319 -3.25442 556.212 -3.25442 543.195 9.76325L300.049 252.91L56.9036 9.76325C43.8863 -3.25442 22.7806 -3.25442 9.76325 9.76325C-3.25442 22.7806 -3.25442 43.8863 9.76325 56.9036L252.909 300.05L9.76392 543.193C-3.25375 556.213 -3.25375 577.316 9.76392 590.336C22.7812 603.353 43.8869 603.353 56.9043 590.336L300.049 347.19L543.195 590.336C556.212 603.353 577.319 603.353 590.335 590.336C603.352 577.316 603.352 556.213 590.335 543.196L347.189 300.05L590.335 56.9036C603.352 43.8863 603.352 22.7806 590.335 9.76325Z" fill="black" fill-opacity="0.8"/>
</svg>
