<svg width="650" height="650" viewBox="0 0 650 650" fill="none" xmlns="http://www.w3.org/2000/svg">
<g opacity="0.8">
<path d="M525 275V562.5C525 570.708 523.383 578.835 520.242 586.418C517.102 594.001 512.498 600.891 506.694 606.695C500.891 612.498 494.001 617.102 486.418 620.243C478.835 623.384 470.708 625 462.5 625H87.5C70.924 625 55.0269 618.416 43.3058 606.695C31.5848 594.974 25 579.077 25 562.5V187.5C25 170.924 31.5848 155.027 43.3058 143.306C55.0269 131.585 70.924 125 87.5 125H349.188" stroke="black" stroke-width="50" stroke-linecap="round" stroke-linejoin="round"/>
<path d="M643.656 8.20358C641.373 5.69485 638.605 3.67508 635.519 2.26632C632.433 0.857567 629.094 0.0890805 625.703 0.0072951C622.312 -0.0744903 618.939 0.532124 615.789 1.79049C612.639 3.04885 609.777 4.93283 607.375 7.32858L588.047 26.563C585.705 28.9069 584.389 32.0851 584.389 35.3989C584.389 38.7127 585.705 41.8909 588.047 44.2348L605.766 61.9223C606.927 63.0892 608.308 64.0152 609.828 64.647C611.348 65.2788 612.979 65.6041 614.625 65.6041C616.271 65.6041 617.902 65.2788 619.422 64.647C620.942 64.0152 622.323 63.0892 623.484 61.9223L642.328 43.1723C651.859 33.6567 652.75 18.1567 643.656 8.20358Z" fill="black"/>
<path d="M548.969 65.6256L266.906 347.188C265.196 348.891 263.953 351.006 263.297 353.329L250.25 392.188C249.937 393.242 249.915 394.362 250.186 395.428C250.456 396.494 251.01 397.467 251.787 398.244C252.565 399.022 253.538 399.575 254.604 399.846C255.67 400.117 256.789 400.094 257.844 399.782L296.672 386.735C298.995 386.079 301.109 384.836 302.812 383.126L584.375 101.032C586.98 98.399 588.441 94.8449 588.441 91.1412C588.441 87.4375 586.98 83.8834 584.375 81.2506L568.828 65.6256C566.192 62.9969 562.621 61.5208 558.898 61.5208C555.176 61.5208 551.605 62.9969 548.969 65.6256Z" fill="black"/>
</g>
</svg>
