<svg width="12" height="13" viewBox="0 0 12 13" fill="none" xmlns="http://www.w3.org/2000/svg">
<path d="M5.89217 12.1226C5.0795 12.1226 4.31548 11.9679 3.60003 11.6587C2.88458 11.3417 2.25719 10.909 1.71491 10.3593C1.18022 9.80327 0.759498 9.15671 0.45114 8.42267C0.150377 7.68708 0 6.90307 0 6.06752C0 5.22416 0.150377 4.43859 0.45114 3.71237C0.759498 2.97677 1.18022 2.33483 1.71491 1.78664C2.25719 1.22909 2.88458 0.791846 3.60003 0.474805C4.31548 0.157765 5.0795 0 5.89217 0C6.70484 0 7.46737 0.157765 8.18282 0.474805C8.89827 0.791846 9.5226 1.22909 10.0573 1.78664C10.5981 2.33483 11.0204 2.97677 11.3211 3.71237C11.6295 4.43859 11.7844 5.22416 11.7844 6.06752C11.7844 6.90307 11.6295 7.68708 11.3211 8.42267C11.0204 9.15671 10.5981 9.80327 10.0573 10.3593C9.5226 10.909 8.89827 11.3417 8.18282 11.6587C7.46737 11.9679 6.70484 12.1226 5.89217 12.1226Z" fill="white"/>
</svg>
