<svg width="650" height="150" viewBox="0 0 650 150" fill="none" xmlns="http://www.w3.org/2000/svg">
<path d="M325 0C283.65 0 250 33.65 250 75C250 116.35 283.65 150 325 150C366.35 150 400 116.35 400 75C400 33.65 366.35 0 325 0Z" fill="black" fill-opacity="0.8"/>
<path d="M75 0C33.65 0 0 33.65 0 75C0 116.35 33.65 150 75 150C116.35 150 150 116.35 150 75C150 33.65 116.35 0 75 0Z" fill="black" fill-opacity="0.8"/>
<path d="M575 0C533.65 0 500 33.65 500 75C500 116.35 533.65 150 575 150C616.35 150 650 116.35 650 75C650 33.65 616.35 0 575 0Z" fill="black" fill-opacity="0.8"/>
</svg>
