<svg width="800" height="652" viewBox="0 0 800 652" fill="none" xmlns="http://www.w3.org/2000/svg">
<path opacity="0.8" d="M95.0071 505.899H151.286V557.941C151.286 620.271 182.753 651.739 246.293 651.739H704.993C767.926 651.739 800 620.271 800 557.941V236.309C800 174.28 767.926 142.813 704.993 142.813H648.714V93.7971C648.714 31.4671 616.944 0 554.004 0H95.0071C31.77 0 0 31.4671 0 93.7971V412.404C0 474.734 31.77 505.899 95.0071 505.899ZM95.9157 457.184C65.6586 457.184 48.7143 441.149 48.7143 409.681V96.52C48.7143 65.0529 65.6586 48.7129 95.9157 48.7129H553.1C583.054 48.7129 599.997 65.0529 599.997 96.52V142.813H246.293C182.753 142.813 151.286 173.979 151.286 236.309V457.184H95.9157ZM200 239.031C200 207.564 216.641 191.527 246.899 191.527H704.081C734.037 191.527 751.281 207.564 751.281 239.031V491.679L640.237 386.989C627.231 374.583 611.194 368.531 594.853 368.531C577.911 368.531 563.387 374.28 549.166 386.686L413.313 507.109L359.153 458.093C346.444 446.897 332.526 440.846 318.001 440.846C304.689 440.846 292.283 446.293 279.273 457.79L200 526.776V239.031ZM363.993 394.553C403.024 394.553 435.097 362.48 435.097 322.843C435.097 284.114 403.024 251.437 363.993 251.437C324.659 251.437 292.587 284.114 292.587 322.843C292.587 362.48 324.659 394.553 363.993 394.553Z" fill="black"/>
</svg>
