<svg width="20" height="37" viewBox="0 0 20 37" fill="none" xmlns="http://www.w3.org/2000/svg">
<path d="M9.696 36.048C8.864 36.048 8.01599 35.968 7.15199 35.808C6.31999 35.68 5.52 35.424 4.752 35.04C4.016 34.656 3.328 34.176 2.688 33.6C2.08 32.992 1.56799 32.32 1.15199 31.584C0.767993 30.816 0.479994 30.016 0.287994 29.184C0.0959944 28.352 0 27.52 0 26.688C0 25.792 0.111998 24.912 0.335999 24.048C0.591998 23.152 0.943998 22.32 1.392 21.552C1.84 20.752 2.368 20.016 2.976 19.344C3.584 18.672 4.224 18.048 4.896 17.472C4.32 16.928 3.77599 16.336 3.26399 15.696C2.75199 15.056 2.304 14.384 1.92 13.68C1.536 12.944 1.248 12.192 1.056 11.424C0.864 10.624 0.768005 9.808 0.768005 8.976C0.768005 8.208 0.847996 7.44 1.008 6.672C1.2 5.872 1.47201 5.12 1.82401 4.416C2.17601 3.68 2.624 3.024 3.168 2.448C3.744 1.872 4.384 1.392 5.088 1.008C5.792 0.624 6.52801 0.368 7.29601 0.24C8.09601 0.0799999 8.896 0 9.696 0C10.496 0 11.28 0.0799999 12.048 0.24C12.848 0.368 13.6 0.624 14.304 1.008C15.008 1.392 15.632 1.872 16.176 2.448C16.752 3.024 17.216 3.68 17.568 4.416C17.92 5.12 18.176 5.872 18.336 6.672C18.528 7.44 18.624 8.208 18.624 8.976C18.624 9.808 18.528 10.624 18.336 11.424C18.144 12.192 17.856 12.944 17.472 13.68C17.088 14.384 16.64 15.056 16.128 15.696C15.616 16.336 15.072 16.928 14.496 17.472C15.168 18.048 15.808 18.672 16.416 19.344C17.024 20.016 17.552 20.752 18 21.552C18.448 22.32 18.784 23.152 19.008 24.048C19.264 24.912 19.392 25.792 19.392 26.688C19.392 27.52 19.296 28.352 19.104 29.184C18.912 30.016 18.608 30.816 18.192 31.584C17.808 32.32 17.296 32.992 16.656 33.6C16.048 34.176 15.36 34.656 14.592 35.04C13.856 35.424 13.056 35.68 12.192 35.808C11.36 35.968 10.528 36.048 9.696 36.048ZM9.696 13.872C10.368 13.232 10.928 12.496 11.376 11.664C11.824 10.832 12.048 9.952 12.048 9.024C12.048 8.64 12.016 8.256 11.952 7.872C11.888 7.456 11.76 7.072 11.568 6.72C11.408 6.368 11.152 6.08 10.8 5.856C10.448 5.6 10.08 5.472 9.696 5.472C9.312 5.472 8.94399 5.6 8.592 5.856C8.24 6.08 7.968 6.368 7.776 6.72C7.616 7.072 7.504 7.456 7.44 7.872C7.376 8.256 7.34399 8.64 7.34399 9.024C7.34399 9.952 7.56801 10.832 8.01601 11.664C8.46401 12.496 9.024 13.232 9.696 13.872ZM9.696 30.576C10.176 30.576 10.624 30.48 11.04 30.288C11.488 30.064 11.84 29.76 12.096 29.376C12.352 28.96 12.544 28.528 12.672 28.08C12.8 27.6 12.864 27.12 12.864 26.64C12.864 26.096 12.768 25.568 12.576 25.056C12.416 24.512 12.192 24.016 11.904 23.568C11.616 23.088 11.28 22.656 10.896 22.272C10.512 21.888 10.112 21.52 9.696 21.168C9.28 21.52 8.88 21.888 8.496 22.272C8.112 22.656 7.77601 23.088 7.48801 23.568C7.20001 24.016 6.96001 24.512 6.76801 25.056C6.60801 25.568 6.528 26.096 6.528 26.64C6.528 27.12 6.592 27.6 6.72 28.08C6.848 28.528 7.04001 28.96 7.29601 29.376C7.55201 29.76 7.888 30.064 8.304 30.288C8.752 30.48 9.216 30.576 9.696 30.576Z" fill="white"/>
</svg>
