<svg width="20" height="36" viewBox="0 0 20 36" fill="none" xmlns="http://www.w3.org/2000/svg">
<path d="M9.696 35.664C8.736 35.664 7.792 35.552 6.864 35.328C5.936 35.104 5.072 34.736 4.272 34.224C3.504 33.68 2.832 33.024 2.256 32.256C1.68 31.488 1.216 30.672 0.863998 29.808C0.543998 28.912 0.320001 28 0.192001 27.072C0.0640013 26.112 0 25.152 0 24.192C0 22.88 0.0959944 21.584 0.287994 20.304C0.479994 18.992 0.752004 17.712 1.104 16.464C1.456 15.184 1.88799 13.952 2.39999 12.768C2.91199 11.552 3.43999 10.336 3.98399 9.12L8.256 0H15.312L9.936 11.472C9.712 11.952 9.48799 12.432 9.26399 12.912C9.03999 13.392 8.832 13.872 8.64 14.352C9.152 13.84 9.744 13.456 10.416 13.2C11.12 12.912 11.84 12.768 12.576 12.768C13.408 12.768 14.208 12.944 14.976 13.296C15.744 13.648 16.384 14.144 16.896 14.784C17.44 15.424 17.872 16.128 18.192 16.896C18.512 17.664 18.752 18.464 18.912 19.296C19.104 20.096 19.232 20.912 19.296 21.744C19.36 22.576 19.392 23.392 19.392 24.192C19.392 25.152 19.328 26.112 19.2 27.072C19.072 28 18.832 28.912 18.48 29.808C18.16 30.672 17.712 31.488 17.136 32.256C16.56 33.024 15.872 33.68 15.072 34.224C14.304 34.736 13.456 35.104 12.528 35.328C11.6 35.552 10.656 35.664 9.696 35.664ZM9.696 30.192C10.112 30.192 10.496 30.08 10.848 29.856C11.232 29.632 11.536 29.36 11.76 29.04C11.984 28.688 12.16 28.32 12.288 27.936C12.448 27.52 12.56 27.104 12.624 26.688C12.72 26.272 12.768 25.856 12.768 25.44C12.8 25.024 12.816 24.608 12.816 24.192C12.816 23.776 12.8 23.36 12.768 22.944C12.768 22.528 12.72 22.128 12.624 21.744C12.56 21.328 12.448 20.928 12.288 20.544C12.16 20.128 11.984 19.744 11.76 19.392C11.536 19.04 11.232 18.768 10.848 18.576C10.496 18.352 10.112 18.24 9.696 18.24C9.216 18.24 8.768 18.384 8.35201 18.672C7.936 18.96 7.616 19.328 7.392 19.776C7.168 20.192 6.992 20.64 6.864 21.12C6.768 21.6 6.68799 22.08 6.62399 22.56L6.576 23.52V24.192C6.576 24.608 6.576 25.024 6.576 25.44C6.608 25.856 6.656 26.272 6.72 26.688C6.816 27.104 6.928 27.52 7.056 27.936C7.216 28.32 7.408 28.688 7.632 29.04C7.856 29.36 8.144 29.632 8.496 29.856C8.88 30.08 9.28 30.192 9.696 30.192Z" fill="white"/>
</svg>
