<svg width="20" height="37" viewBox="0 0 20 37" fill="none" xmlns="http://www.w3.org/2000/svg">
<path d="M9.936 36.048C9.072 36.048 8.208 35.968 7.344 35.808C6.512 35.68 5.696 35.44 4.896 35.088C4.128 34.704 3.424 34.208 2.784 33.6C2.144 32.992 1.616 32.32 1.2 31.584C0.783997 30.816 0.479998 30.016 0.287998 29.184C0.0959983 28.32 0 27.456 0 26.592V26.304H6.576V26.448C6.576 26.928 6.624 27.424 6.72 27.936C6.848 28.416 7.056 28.864 7.344 29.28C7.632 29.696 8 30.016 8.448 30.24C8.928 30.464 9.424 30.576 9.936 30.576C10.48 30.576 10.992 30.432 11.472 30.144C11.952 29.856 12.32 29.488 12.576 29.04C12.864 28.56 13.056 28.048 13.152 27.504C13.248 26.96 13.296 26.416 13.296 25.872C13.296 25.392 13.248 24.912 13.152 24.432C13.088 23.92 12.96 23.44 12.768 22.992C12.576 22.544 12.304 22.144 11.952 21.792C11.632 21.408 11.248 21.104 10.8 20.88C10.352 20.656 9.888 20.512 9.408 20.448C8.928 20.384 8.432 20.352 7.92 20.352V14.88C8.368 14.88 8.8 14.864 9.216 14.832C9.664 14.768 10.08 14.624 10.464 14.4C10.848 14.176 11.184 13.904 11.472 13.584C11.76 13.232 11.984 12.848 12.144 12.432C12.304 12.016 12.4 11.6 12.432 11.184C12.496 10.736 12.528 10.288 12.528 9.84C12.528 9.36 12.496 8.896 12.432 8.448C12.368 7.968 12.24 7.52 12.048 7.104C11.856 6.656 11.568 6.272 11.184 5.952C10.832 5.632 10.416 5.472 9.936 5.472C9.488 5.472 9.072 5.616 8.688 5.904C8.304 6.192 8.016 6.544 7.824 6.96C7.632 7.344 7.504 7.76 7.44 8.208C7.376 8.656 7.344 9.12 7.344 9.6V9.744H0.768002V9.36C0.768002 8.528 0.848003 7.712 1.008 6.912C1.2 6.08 1.472 5.296 1.824 4.56C2.176 3.824 2.64 3.152 3.216 2.544C3.792 1.936 4.432 1.44 5.136 1.056C5.872 0.672 6.64 0.4 7.44 0.24C8.272 0.0799999 9.104 0 9.936 0C10.768 0 11.6 0.0799999 12.432 0.24C13.264 0.4 14.032 0.688 14.736 1.104C15.472 1.52 16.112 2.048 16.656 2.688C17.232 3.328 17.696 4.032 18.048 4.8C18.4 5.536 18.656 6.32 18.816 7.152C19.008 7.952 19.104 8.768 19.104 9.6C19.104 10.4 19.024 11.184 18.864 11.952C18.704 12.72 18.448 13.456 18.096 14.16C17.744 14.832 17.296 15.456 16.752 16.032C16.24 16.608 15.648 17.104 14.976 17.52C15.744 17.936 16.432 18.448 17.04 19.056C17.68 19.664 18.208 20.352 18.624 21.12C19.072 21.856 19.392 22.656 19.584 23.52C19.776 24.352 19.872 25.2 19.872 26.064C19.872 26.96 19.776 27.84 19.584 28.704C19.392 29.568 19.088 30.4 18.672 31.2C18.288 32 17.776 32.72 17.136 33.36C16.528 34 15.824 34.528 15.024 34.944C14.256 35.36 13.44 35.648 12.576 35.808C11.712 35.968 10.832 36.048 9.936 36.048Z" fill="white"/>
</svg>
