<svg width="20" height="36" viewBox="0 0 20 36" fill="none" xmlns="http://www.w3.org/2000/svg">
<path d="M4.08 35.664L9.45599 24.192C9.67999 23.712 9.90401 23.232 10.128 22.752C10.352 22.272 10.56 21.792 10.752 21.312C10.24 21.824 9.63199 22.224 8.92799 22.512C8.25599 22.768 7.55199 22.896 6.81599 22.896C5.98399 22.896 5.184 22.72 4.416 22.368C3.648 22.016 2.992 21.52 2.448 20.88C1.936 20.24 1.52 19.536 1.2 18.768C0.879997 18 0.624007 17.216 0.432007 16.416C0.272007 15.584 0.159993 14.752 0.095993 13.92C0.031993 13.088 0 12.272 0 11.472C0 10.512 0.0640013 9.568 0.192001 8.64C0.320001 7.68 0.543998 6.768 0.863998 5.904C1.216 5.008 1.68 4.176 2.256 3.408C2.832 2.64 3.504 2 4.272 1.488C5.072 0.944 5.936 0.559999 6.864 0.335999C7.792 0.112 8.736 0 9.696 0C10.656 0 11.6 0.112 12.528 0.335999C13.456 0.559999 14.304 0.944 15.072 1.488C15.872 2 16.56 2.64 17.136 3.408C17.712 4.176 18.16 5.008 18.48 5.904C18.832 6.768 19.072 7.68 19.2 8.64C19.328 9.568 19.392 10.512 19.392 11.472C19.392 12.784 19.296 14.096 19.104 15.408C18.912 16.688 18.64 17.968 18.288 19.248C17.936 20.496 17.504 21.728 16.992 22.944C16.48 24.128 15.952 25.328 15.408 26.544L11.136 35.664H4.08ZM9.696 17.424C10.176 17.424 10.624 17.28 11.04 16.992C11.456 16.704 11.776 16.352 12 15.936C12.224 15.488 12.384 15.024 12.48 14.544C12.608 14.064 12.704 13.584 12.768 13.104L12.816 12.144V11.472C12.816 11.056 12.8 10.64 12.768 10.224C12.768 9.808 12.72 9.392 12.624 8.976C12.56 8.56 12.448 8.16 12.288 7.776C12.16 7.36 11.984 6.992 11.76 6.672C11.536 6.32 11.232 6.032 10.848 5.808C10.496 5.584 10.112 5.472 9.696 5.472C9.28 5.472 8.88 5.584 8.496 5.808C8.144 6.032 7.856 6.32 7.632 6.672C7.408 6.992 7.216 7.36 7.056 7.776C6.928 8.16 6.816 8.56 6.72 8.976C6.656 9.392 6.608 9.808 6.576 10.224C6.576 10.64 6.576 11.056 6.576 11.472C6.576 11.888 6.576 12.304 6.576 12.72C6.608 13.136 6.656 13.552 6.72 13.968C6.816 14.352 6.928 14.752 7.056 15.168C7.216 15.552 7.408 15.92 7.632 16.272C7.856 16.624 8.144 16.912 8.496 17.136C8.88 17.328 9.28 17.424 9.696 17.424Z" fill="white"/>
</svg>
