<svg width="20" height="36" viewBox="0 0 20 36" fill="none" xmlns="http://www.w3.org/2000/svg">
<path d="M9.55199 35.664C8.71999 35.664 7.904 35.584 7.104 35.424C6.304 35.296 5.536 35.056 4.8 34.704C4.064 34.32 3.392 33.84 2.784 33.264C2.208 32.688 1.712 32.048 1.296 31.344C0.911998 30.64 0.607995 29.904 0.383995 29.136C0.191995 28.336 0.064 27.52 0 26.688H6.624C6.656 27.104 6.71999 27.52 6.81599 27.936C6.94399 28.352 7.12 28.736 7.344 29.088C7.6 29.44 7.92 29.712 8.304 29.904C8.688 30.096 9.10399 30.192 9.55199 30.192C9.96799 30.192 10.352 30.08 10.704 29.856C11.056 29.6 11.344 29.296 11.568 28.944C11.792 28.56 11.952 28.16 12.048 27.744C12.176 27.328 12.272 26.912 12.336 26.496C12.432 26.08 12.48 25.664 12.48 25.248C12.512 24.832 12.528 24.416 12.528 24C12.528 23.552 12.512 23.12 12.48 22.704C12.48 22.288 12.448 21.888 12.384 21.504C12.32 21.088 12.224 20.688 12.096 20.304C12 19.888 11.84 19.504 11.616 19.152C11.424 18.768 11.152 18.448 10.8 18.192C10.48 17.936 10.112 17.808 9.696 17.808C9.344 17.808 8.992 17.856 8.64 17.952C8.32 18.048 8.032 18.224 7.776 18.48C7.552 18.736 7.376 19.04 7.248 19.392C7.12 19.712 7.056 20.048 7.056 20.4H0.479996V0H17.808V5.472H7.056V12.576C7.472 12.48 7.904 12.416 8.352 12.384C8.8 12.352 9.248 12.336 9.696 12.336C10.656 12.336 11.6 12.464 12.528 12.72C13.456 12.944 14.288 13.328 15.024 13.872C15.792 14.416 16.448 15.088 16.992 15.888C17.536 16.688 17.968 17.536 18.288 18.432C18.608 19.296 18.816 20.208 18.912 21.168C19.04 22.096 19.104 23.04 19.104 24C19.104 24.96 19.04 25.92 18.912 26.88C18.816 27.808 18.592 28.72 18.24 29.616C17.92 30.512 17.472 31.36 16.896 32.16C16.352 32.928 15.696 33.584 14.928 34.128C14.16 34.672 13.296 35.056 12.336 35.28C11.408 35.536 10.48 35.664 9.55199 35.664Z" fill="white"/>
</svg>
