<svg width="20" height="37" viewBox="0 0 20 37" fill="none" xmlns="http://www.w3.org/2000/svg">
<path d="M9.696 36.048C8.8 36.048 7.92 35.968 7.056 35.808C6.192 35.648 5.36 35.36 4.56 34.944C3.792 34.528 3.104 34 2.496 33.36C1.888 32.72 1.392 32 1.008 31.2C0.624 30.4 0.352 29.568 0.192 28.704C0.0640001 27.84 0 26.96 0 26.064V9.984C0 9.088 0.0640001 8.208 0.192 7.344C0.352 6.48 0.624 5.648 1.008 4.848C1.392 4.048 1.888 3.328 2.496 2.688C3.104 2.048 3.792 1.52 4.56 1.104C5.36 0.688 6.192 0.4 7.056 0.24C7.92 0.0799999 8.8 0 9.696 0C10.592 0 11.472 0.0799999 12.336 0.24C13.2 0.4 14.016 0.688 14.784 1.104C15.584 1.52 16.288 2.048 16.896 2.688C17.504 3.328 18 4.048 18.384 4.848C18.768 5.648 19.024 6.48 19.152 7.344C19.312 8.208 19.392 9.088 19.392 9.984V26.064C19.392 26.96 19.312 27.84 19.152 28.704C19.024 29.568 18.768 30.4 18.384 31.2C18 32 17.504 32.72 16.896 33.36C16.288 34 15.584 34.528 14.784 34.944C14.016 35.36 13.2 35.648 12.336 35.808C11.472 35.968 10.592 36.048 9.696 36.048ZM6.576 17.856L12.816 12.912V9.984C12.816 9.472 12.768 8.96 12.672 8.448C12.608 7.936 12.448 7.456 12.192 7.008C11.968 6.528 11.616 6.16 11.136 5.904C10.688 5.616 10.208 5.472 9.696 5.472C9.184 5.472 8.688 5.616 8.208 5.904C7.76 6.16 7.408 6.528 7.152 7.008C6.928 7.456 6.768 7.936 6.672 8.448C6.608 8.96 6.576 9.472 6.576 9.984V17.856ZM9.696 30.576C10.208 30.576 10.688 30.448 11.136 30.192C11.616 29.904 11.968 29.536 12.192 29.088C12.448 28.608 12.608 28.112 12.672 27.6C12.768 27.088 12.816 26.576 12.816 26.064V18.192L6.576 23.136V26.064C6.576 26.576 6.608 27.088 6.672 27.6C6.768 28.112 6.928 28.608 7.152 29.088C7.408 29.536 7.76 29.904 8.208 30.192C8.688 30.448 9.184 30.576 9.696 30.576Z" fill="white"/>
</svg>
