<svg width="19" height="36" viewBox="0 0 19 36" fill="none" xmlns="http://www.w3.org/2000/svg">
<path d="M0.0960007 35.664V35.616C0.0960007 34.816 0.0960007 34.016 0.0960007 33.216C0.128001 32.384 0.192002 31.568 0.288002 30.768C0.416002 29.936 0.576002 29.136 0.768002 28.368C0.960002 27.568 1.2 26.784 1.488 26.016C1.808 25.248 2.176 24.512 2.592 23.808C3.008 23.104 3.456 22.432 3.936 21.792C4.448 21.152 4.992 20.544 5.568 19.968C6.144 19.392 6.752 18.848 7.392 18.336C8.032 17.824 8.656 17.312 9.264 16.8C9.904 16.288 10.464 15.696 10.944 15.024C11.424 14.352 11.776 13.632 12 12.864C12.224 12.064 12.336 11.248 12.336 10.416C12.336 10.064 12.32 9.712 12.288 9.36C12.256 9.008 12.208 8.656 12.144 8.304C12.08 7.952 11.968 7.616 11.808 7.296C11.68 6.944 11.504 6.64 11.28 6.384C11.088 6.096 10.816 5.872 10.464 5.712C10.144 5.552 9.808 5.472 9.456 5.472C8.976 5.472 8.528 5.6 8.112 5.856C7.728 6.112 7.408 6.448 7.152 6.864C6.928 7.28 6.768 7.728 6.672 8.208C6.608 8.656 6.576 9.12 6.576 9.6V9.744H0V9.408C0 8.576 0.0800016 7.744 0.240002 6.912C0.432002 6.08 0.72 5.296 1.104 4.56C1.488 3.824 1.968 3.152 2.544 2.544C3.152 1.936 3.824 1.44 4.56 1.056C5.328 0.64 6.128 0.368 6.96 0.24C7.792 0.0799999 8.624 0 9.456 0C10.352 0 11.232 0.0959997 12.096 0.287999C12.992 0.447999 13.824 0.768 14.592 1.248C15.36 1.696 16.032 2.272 16.608 2.976C17.184 3.648 17.648 4.4 18 5.232C18.352 6.032 18.592 6.88 18.72 7.776C18.848 8.64 18.912 9.52 18.912 10.416C18.912 11.408 18.8 12.4 18.576 13.392C18.352 14.352 18 15.264 17.52 16.128C17.04 16.992 16.464 17.792 15.792 18.528C15.12 19.264 14.416 19.968 13.68 20.64C12.976 21.28 12.272 21.952 11.568 22.656C10.864 23.328 10.208 24.064 9.6 24.864C9.024 25.664 8.512 26.512 8.064 27.408C7.648 28.304 7.328 29.232 7.104 30.192H18.72V35.664H0.0960007Z" fill="white"/>
</svg>
