<svg width="667" height="667" viewBox="0 0 667 667" fill="none" xmlns="http://www.w3.org/2000/svg">
<path fill-rule="evenodd" clip-rule="evenodd" d="M666.667 100C666.667 44.7717 621.897 0 566.667 0H100C44.7717 0 0 44.7717 0 100V566.667C0 621.897 44.7717 666.667 100 666.667H566.667C621.897 666.667 666.667 621.897 666.667 566.667V100ZM600 100C600 81.5907 585.077 66.6667 566.667 66.6667H100C81.5907 66.6667 66.6667 81.5907 66.6667 100V566.667C66.6667 585.077 81.5907 600 100 600H566.667C585.077 600 600 585.077 600 566.667V100Z" fill="black" fill-opacity="0.8"/>
</svg>
