<svg width="15" height="24" viewBox="0 0 15 24" fill="none" xmlns="http://www.w3.org/2000/svg">
<path d="M12.9161 23.3122C12.6168 23.3122 12.3328 23.2389 12.0654 23.0907C11.7981 22.9509 11.5186 22.7311 11.2269 22.4264L6.29176 17.2694C6.21429 17.1995 6.12309 17.1645 6.02132 17.1645H2.66734C1.81062 17.1645 1.14835 16.9048 0.685054 16.3836C0.227834 15.8624 0 15.0947 0 14.0789V9.24668C0 8.23926 0.227834 7.47493 0.685054 6.95374C1.14835 6.43421 1.81062 6.17279 2.66734 6.17279H6.02132C6.12309 6.17279 6.21429 6.13448 6.29176 6.05622L11.2269 0.964193C11.5581 0.624501 11.8452 0.381408 12.0897 0.234874C12.3328 0.0783494 12.6001 0 12.8918 0C13.349 0 13.7182 0.169935 14.0022 0.507962C14.2923 0.845989 14.4381 1.25892 14.4381 1.74514V21.6321C14.4381 22.11 14.2968 22.5096 14.0128 22.8293C13.7302 23.1507 13.3642 23.3122 12.9161 23.3122Z" fill="white"/>
</svg>
