<svg width="12" height="19" viewBox="0 0 12 19" fill="none" xmlns="http://www.w3.org/2000/svg">
<path d="M5.89217 18.8506C5.0795 18.8506 4.31548 18.696 3.60003 18.3867C2.88458 18.0697 2.25719 17.637 1.71491 17.0873C1.18022 16.5313 0.759498 15.8847 0.45114 15.1507C0.150377 14.4151 0 13.6311 0 12.7955C0 11.9522 0.150377 11.1666 0.45114 10.4404C0.759498 9.7048 1.18022 9.06286 1.71491 8.51467C2.25719 7.95712 2.88458 7.51987 3.60003 7.20283C4.31548 6.88579 5.0795 6.72803 5.89217 6.72803C6.70484 6.72803 7.46737 6.88579 8.18282 7.20283C8.89827 7.51987 9.5226 7.95712 10.0573 8.51467C10.5981 9.06286 11.0204 9.7048 11.3211 10.4404C11.6295 11.1666 11.7844 11.9522 11.7844 12.7955C11.7844 13.6311 11.6295 14.4151 11.3211 15.1507C11.0204 15.8847 10.5981 16.5313 10.0573 17.0873C9.5226 17.637 8.89827 18.0697 8.18282 18.3867C7.46737 18.696 6.70484 18.8506 5.89217 18.8506Z" fill="white"/>
<path d="M5.8903 3.74201C5.63967 3.74201 5.40418 3.69353 5.18392 3.59826C4.96215 3.50143 4.76924 3.36715 4.60215 3.19848C4.43658 3.02512 4.30601 2.82678 4.21183 2.60032C4.11765 2.37231 4.07202 2.13022 4.07202 1.87253C4.07202 1.61328 4.11765 1.36969 4.21183 1.14636C4.30601 0.918339 4.43658 0.721488 4.60215 0.551255C4.76924 0.379459 4.96215 0.24519 5.18392 0.146798C5.40418 0.0484059 5.63967 0 5.8903 0C6.14094 0 6.37791 0.0484059 6.59816 0.146798C6.81842 0.24519 7.0113 0.379459 7.17688 0.551255C7.34397 0.721488 7.47305 0.918339 7.56571 1.14636C7.66141 1.36969 7.71007 1.61328 7.71007 1.87253C7.71007 2.13022 7.66141 2.37231 7.56571 2.60032C7.47305 2.82678 7.34397 3.02512 7.17688 3.19848C7.0113 3.36715 6.81842 3.50143 6.59816 3.59826C6.37791 3.69353 6.14094 3.74201 5.8903 3.74201Z" fill="white" fill-opacity="0.5"/>
</svg>
