<svg width="734" height="734" viewBox="0 0 734 734" fill="none" xmlns="http://www.w3.org/2000/svg">
<path fill-rule="evenodd" clip-rule="evenodd" d="M733.333 100C733.333 44.7717 688.563 0 633.333 0H233.333C178.105 0 133.333 44.7717 133.333 100V133.333H100C44.7717 133.333 0 178.105 0 233.333V633.333C0 688.563 44.7717 733.333 100 733.333H500C555.23 733.333 600 688.563 600 633.333V600H633.333C688.563 600 733.333 555.23 733.333 500V100ZM600 533.333H633.333C651.743 533.333 666.667 518.41 666.667 500V100C666.667 81.5907 651.743 66.6667 633.333 66.6667H233.333C214.924 66.6667 200 81.5907 200 100V133.333H500C555.23 133.333 600 178.105 600 233.333V533.333ZM500 200C518.41 200 533.333 214.924 533.333 233.333V633.333C533.333 651.743 518.41 666.667 500 666.667H100C81.5907 666.667 66.6667 651.743 66.6667 633.333V233.333C66.6667 214.924 81.5907 200 100 200H500Z" fill="black" fill-opacity="0.8"/>
</svg>
