<svg width="47" height="46" viewBox="0 0 47 46" fill="none" xmlns="http://www.w3.org/2000/svg">
<path d="M23.3122 0C36.1872 0 46.6244 10.7311 46.6244 23.9686C46.6244 33.1606 41.5906 41.1422 34.2056 45.1638L32.2424 41.7054C38.4767 38.3806 42.7396 31.6883 42.7396 23.9686C42.7396 12.9379 34.0425 3.99422 23.3122 3.99422C12.5836 3.99422 3.88482 12.9379 3.88482 23.9686C3.88482 31.6883 8.14765 38.3806 14.382 41.7054L12.4188 45.1638C5.03378 41.1422 0 33.1606 0 23.9686C0 10.7311 10.4372 0 23.3122 0ZM23.3122 6.65811C32.6104 6.65811 40.1503 14.4086 40.1503 23.9686C40.1503 30.7072 36.402 36.5401 30.9353 39.401L28.9754 35.9462C33.2898 33.7856 36.2638 29.2349 36.2638 23.9686C36.2638 16.6154 30.4657 10.6523 23.3122 10.6523C16.1603 10.6523 10.3623 16.6154 10.3623 23.9686C10.3623 29.2349 13.3346 33.7856 17.649 35.9462L15.6891 39.401C10.2241 36.5401 6.47576 30.7072 6.47576 23.9686C6.47576 14.4086 14.014 6.65811 23.3122 6.65811ZM23.3122 13.9823C28.6773 13.9823 33.0267 18.4541 33.0267 23.9686C33.0267 28.0091 30.6922 31.4846 27.3369 33.0579L25.362 29.5773C27.5684 28.7247 29.1402 26.5367 29.1402 23.9686C29.1402 20.6593 26.5309 17.9765 23.3122 17.9765C20.0951 17.9765 17.4841 20.6593 17.4841 23.9686C17.4858 26.535 19.056 28.723 21.2624 29.5756L19.2875 33.0579C15.9339 31.4846 13.5993 28.0074 13.5993 23.9686C13.5993 18.4524 17.9487 13.9823 23.3122 13.9823ZM23.3122 20.6405C25.0989 20.6405 26.5492 22.1282 26.5492 23.967C26.5492 25.8057 25.0989 27.2951 23.3122 27.2951C21.5238 27.2951 20.0735 25.8057 20.0735 23.967C20.0735 22.1299 21.5238 20.6405 23.3122 20.6405Z" fill="white"/>
</svg>
