<svg width="47" height="48" viewBox="0 0 47 48" fill="none" xmlns="http://www.w3.org/2000/svg">
<path d="M9.73046e-06 19.3799C9.73046e-06 16.7176 0.501149 14.2119 1.50343 11.8628C2.50571 9.51374 3.8995 7.45437 5.68481 5.68473C7.47012 3.89942 9.52948 2.50562 11.8629 1.50335C14.212 0.501068 16.7255 -7.10711e-05 19.4035 -7.10711e-05C22.0815 -7.10711e-05 24.5871 0.501068 26.9206 1.50335C29.2697 2.50562 31.3369 3.89942 33.1222 5.68473C34.9075 7.45437 36.3013 9.51374 37.3036 11.8628C38.3058 14.2119 38.807 16.7176 38.807 19.3799C38.807 21.3845 38.5094 23.2951 37.9143 25.1117C37.3349 26.9283 36.5205 28.5962 35.4713 30.1153L45.5958 40.2868C45.9717 40.6783 46.2536 41.109 46.4415 41.5788C46.6451 42.0643 46.7469 42.5811 46.7469 43.1292C46.7469 43.8809 46.5746 44.5622 46.2301 45.1729C45.8856 45.7837 45.4157 46.2613 44.8206 46.6059C44.2255 46.9661 43.5365 47.1462 42.7534 47.1462C42.221 47.1462 41.7042 47.0522 41.203 46.8643C40.7019 46.6763 40.2556 46.3866 39.8641 45.9951L29.6455 35.7766C28.1734 36.7162 26.5682 37.4601 24.8299 38.0082C23.1072 38.5407 21.2984 38.8069 19.4035 38.8069C16.7255 38.8069 14.212 38.3058 11.8629 37.3035C9.52948 36.3012 7.47012 34.9074 5.68481 33.1221C3.8995 31.3368 2.50571 29.2696 1.50343 26.9205C0.501149 24.5714 9.73046e-06 22.0579 9.73046e-06 19.3799ZM5.54386 19.3799C5.54386 21.3062 5.89623 23.1071 6.60095 24.7828C7.32134 26.4585 8.31579 27.9306 9.5843 29.1991C10.8685 30.4676 12.3484 31.4621 14.0241 32.1825C15.6998 32.9028 17.4929 33.263 19.4035 33.263C21.3141 33.263 23.1072 32.9028 24.7829 32.1825C26.4586 31.4621 27.9307 30.4676 29.1992 29.1991C30.4677 27.9306 31.4622 26.4585 32.1825 24.7828C32.9029 23.1071 33.2631 21.3062 33.2631 19.3799C33.2631 17.4693 32.9029 15.684 32.1825 14.024C31.4622 12.3483 30.4677 10.8762 29.1992 9.60771C27.9307 8.32354 26.4586 7.32126 24.7829 6.60087C23.1072 5.88048 21.3141 5.52029 19.4035 5.52029C17.4929 5.52029 15.6998 5.88048 14.0241 6.60087C12.3484 7.32126 10.8685 8.32354 9.5843 9.60771C8.31579 10.8762 7.32134 12.3483 6.60095 14.024C5.89623 15.684 5.54386 17.4693 5.54386 19.3799Z" fill="black" fill-opacity="0.75"/>
</svg>
