<svg width="46" height="47" viewBox="0 0 46 47" fill="none" xmlns="http://www.w3.org/2000/svg">
<path d="M10.6413 46.6528C8.65239 46.6528 6.85142 46.2143 5.23838 45.3374C3.641 44.476 2.36466 43.278 1.40936 41.7432C0.469728 40.2085 -8.96379e-05 38.431 -8.96379e-05 36.4108C-8.96379e-05 34.3906 0.469728 32.6131 1.40936 31.0784C2.36466 29.5436 3.641 28.3456 5.23838 27.4843C6.85142 26.6073 8.65239 26.1688 10.6413 26.1688H35.0953C37.0842 26.1688 38.8773 26.6073 40.4747 27.4843C42.0878 28.3456 43.3641 29.5436 44.3037 31.0784C45.259 32.6131 45.7367 34.3906 45.7367 36.4108C45.7367 38.431 45.259 40.2085 44.3037 41.7432C43.3641 43.278 42.0878 44.476 40.4747 45.3374C38.8773 46.2143 37.0842 46.6528 35.0953 46.6528H10.6413ZM35.7061 42.0251C36.724 42.0251 37.6558 41.7667 38.5015 41.2499C39.3472 40.7488 40.0206 40.0676 40.5217 39.2062C41.0385 38.3449 41.3047 37.3896 41.3204 36.3403C41.3204 35.3224 41.0698 34.3984 40.5687 33.5684C40.0676 32.7227 39.3863 32.0493 38.525 31.5482C37.6793 31.0471 36.7397 30.7965 35.7061 30.7965C34.6725 30.7965 33.7328 31.0471 32.8872 31.5482C32.0415 32.0493 31.3681 32.7227 30.867 33.5684C30.3658 34.4141 30.1152 35.3537 30.1152 36.3873C30.1152 37.4209 30.3658 38.3606 30.867 39.2062C31.3681 40.0519 32.0415 40.7253 32.8872 41.2264C33.7328 41.7432 34.6725 42.0095 35.7061 42.0251ZM11.6044 22.5747C9.41193 22.5747 7.43869 22.1049 5.68471 21.1652C3.93072 20.2256 2.54476 18.9101 1.52682 17.2187C0.50888 15.5117 -8.96379e-05 13.5385 -8.96379e-05 11.299C-8.96379e-05 9.04392 0.50888 7.07068 1.52682 5.37934C2.54476 3.67233 3.93072 2.34901 5.68471 1.40938C7.43869 0.469739 9.41193 -7.87675e-05 11.6044 -7.87675e-05H34.1322C36.3247 -7.87675e-05 38.2979 0.469739 40.0519 1.40938C41.8059 2.34901 43.1918 3.67233 44.2098 5.37934C45.2277 7.07068 45.7367 9.04392 45.7367 11.299C45.7367 13.5385 45.2277 15.5117 44.2098 17.2187C43.1918 18.9101 41.8059 20.2256 40.0519 21.1652C38.2979 22.1049 36.3247 22.5747 34.1322 22.5747H11.6044ZM11.6044 17.853H34.1322C35.385 17.853 36.5283 17.5789 37.5619 17.0308C38.6111 16.467 39.449 15.6918 40.0754 14.7052C40.7018 13.7186 41.015 12.5832 41.015 11.299C41.015 9.99921 40.7018 8.86382 40.0754 7.89286C39.449 6.90625 38.6111 6.13888 37.5619 5.59076C36.5283 5.02697 35.385 4.74508 34.1322 4.74508H11.6044C10.3516 4.74508 9.20051 5.02697 8.15125 5.59076C7.11765 6.13888 6.28764 6.90625 5.66122 7.89286C5.03479 8.86382 4.72158 9.99921 4.72158 11.299C4.72158 12.5832 5.03479 13.7186 5.66122 14.7052C6.28764 15.6918 7.11765 16.467 8.15125 17.0308C9.20051 17.5789 10.3516 17.853 11.6044 17.853ZM11.6044 16.3261C10.6648 16.3261 9.81128 16.099 9.04391 15.6449C8.2922 15.1907 7.68926 14.5799 7.23511 13.8126C6.79661 13.0452 6.57736 12.1995 6.57736 11.2756C6.57736 10.3516 6.79661 9.5059 7.23511 8.73854C7.68926 7.97117 8.2922 7.3604 9.04391 6.90625C9.81128 6.45209 10.6648 6.22501 11.6044 6.22501C12.5441 6.22501 13.3976 6.45209 14.1649 6.90625C14.9323 7.34474 15.5431 7.94768 15.9972 8.71504C16.4514 9.46675 16.6706 10.3124 16.655 11.2521C16.655 12.1917 16.4279 13.0452 15.9737 13.8126C15.5196 14.5799 14.9088 15.1985 14.1414 15.6684C13.3897 16.1225 12.5441 16.3418 11.6044 16.3261Z" fill="black" fill-opacity="0.75"/>
</svg>
