<svg width="416" height="551" viewBox="0 0 416 551" fill="none" xmlns="http://www.w3.org/2000/svg">
<g opacity="0.8">
<path d="M304 118.4C297.814 124.586 287.786 124.586 281.6 118.4L224.971 61.7706C215.598 52.398 200.402 52.398 191.029 61.7706L134.4 118.4C128.214 124.586 118.186 124.586 112 118.4C105.814 112.214 105.814 102.186 112 96L191.029 16.9706C200.402 7.59799 215.598 7.59798 224.971 16.9706L304 96C310.186 102.186 310.186 112.214 304 118.4Z" fill="black"/>
<path d="M192 38.3999C192 29.5633 199.163 22.3999 208 22.3999C216.837 22.3999 224 29.5633 224 38.3999V342.4C224 351.236 216.837 358.4 208 358.4C199.163 358.4 192 351.236 192 342.4V38.3999Z" fill="black"/>
<path d="M368 550.4H48C20.8 550.4 0 529.6 0 502.4V214.4C0 187.2 20.8 166.4 48 166.4H160V198.4H48C38.4 198.4 32 204.8 32 214.4V502.4C32 512 38.4 518.4 48 518.4H368C377.6 518.4 384 512 384 502.4V214.4C384 204.8 377.6 198.4 368 198.4H256V166.4H368C395.2 166.4 416 187.2 416 214.4V502.4C416 529.6 395.2 550.4 368 550.4Z" fill="black"/>
</g>
</svg>
