<svg width="51" height="52" viewBox="0 0 51 52" fill="none" xmlns="http://www.w3.org/2000/svg">
<path d="M47.0194 37.9843C49.6837 32.9407 50.633 27.1146 49.7005 21.4375L49.484 20.3075C48.3184 14.7005 45.3377 9.64487 41.0415 5.95884L40.159 5.24148C35.713 1.77116 30.2681 -0.0795548 24.6731 0.00262341L22.5917 0.0334494L22.7748 13.9661C22.7915 15.1474 23.7407 16.0907 24.8896 16.0753C26.0386 16.0582 26.9544 15.0857 26.9377 13.9044L26.8046 4.36153C30.7344 4.70907 34.4974 6.18818 37.6446 8.6501L38.3773 9.24594C41.9574 12.3191 44.4385 16.5342 45.4209 21.2098L45.5874 22.1514C46.37 26.8852 45.5875 31.7406 43.3561 35.9453L42.9065 36.7773C40.492 40.8914 36.8287 44.0502 32.4826 45.7588L31.6 46.0806C26.871 47.6951 21.7424 47.5153 17.1299 45.5773L16.2807 45.1954C12.0512 43.1889 8.58761 39.7837 6.45621 35.5121L6.05659 34.651C4.12501 30.3024 3.64225 25.4025 4.74126 20.7338L4.9244 19.9976C5.90684 16.3458 7.805 13.0416 10.4193 10.4084C11.2519 9.58152 11.2519 8.22557 10.4526 7.38154C9.65335 6.5375 8.33785 6.52379 7.50527 7.35071C4.37477 10.5094 2.09358 14.4746 0.911314 18.8557L0.694835 19.7373C-0.620639 25.3391 -0.0545667 31.215 2.27665 36.4316L2.75961 37.4673C5.3073 42.5915 9.47011 46.6747 14.5322 49.0801L15.5481 49.5407C21.0764 51.8639 27.2374 52.0762 32.9156 50.1416L33.9646 49.7563C39.1766 47.707 43.5893 43.9183 46.47 38.9825L47.0194 37.9843Z" fill="white" fill-opacity="0.5"/>
<path d="M26.4043 22.6504C27.47 23.3883 28.1527 24.6553 28.0861 26.0694C28.0029 28.2386 26.2212 29.9266 24.1231 29.8376C22.741 29.7794 21.5755 28.9799 20.9428 27.8311L14.0323 16.0624C13.2497 14.7425 12.8667 14.0834 12.9499 13.7957C13.0165 13.5492 13.2164 13.3625 13.4495 13.3129C13.7326 13.2547 14.3488 13.705 15.5643 14.6072L26.4043 22.6504Z" fill="white"/>
</svg>
