<svg width="750" height="498" viewBox="0 0 750 498" fill="none" xmlns="http://www.w3.org/2000/svg">
<path opacity="0.8" fill-rule="evenodd" clip-rule="evenodd" d="M196.789 1.38447e-05C207.822 -0.0111862 217.724 6.77388 221.695 17.0683L392.886 460.8C398.188 474.544 391.346 489.979 377.605 495.28C363.865 500.581 348.429 493.739 343.128 480L287.067 334.686H107.271L51.5729 479.947C46.3002 493.696 30.8781 500.571 17.1267 495.301C3.37535 490.027 -3.49794 474.603 1.7748 460.853L171.917 17.1195C175.867 6.81709 185.755 0.0112138 196.789 1.38447e-05ZM196.893 100.951L269.578 289.353H124.653L196.893 100.951ZM581.275 131.042C493.77 131.042 427.155 209.904 427.155 312.518C427.155 420.464 499.103 493.995 581.275 493.995C625.141 493.995 670.635 475.691 701.563 441.168V468.267C701.563 481.52 712.304 492.267 725.563 492.267C738.816 492.267 749.563 481.52 749.563 468.267V158.4C749.563 145.145 738.816 134.4 725.563 134.4C712.304 134.4 701.563 145.145 701.563 158.4V185.236C672.288 152.051 628.928 131.042 581.275 131.042ZM701.563 375.906V242.771C680.741 204.321 636.875 176.404 591.296 176.404C539.136 176.404 481.868 224.843 481.868 312.509C481.868 394.843 533.803 448.613 591.296 448.613C638.405 448.613 681.168 413.077 701.563 375.906Z" fill="black"/>
</svg>
