<svg width="57" height="59" viewBox="0 0 57 59" fill="none" xmlns="http://www.w3.org/2000/svg">
<path d="M28.3077 0C43.9418 0 56.6153 13.0304 56.6153 29.1048C56.6153 45.1792 43.9418 58.2095 28.3077 58.2095C12.6735 58.2095 0 45.1792 0 29.1048C0 13.0304 12.6735 0 28.3077 0ZM28.3077 17.1136C29.8396 17.1136 31.3566 17.4235 32.772 18.0261C34.1857 18.6288 35.4712 19.5138 36.5536 20.6267C37.6359 21.7395 38.4968 23.0612 39.0829 24.5147C39.669 25.97 39.9705 27.5297 39.9705 29.1048C39.9705 30.6799 39.669 32.2396 39.0829 33.6948C38.4968 35.1483 37.6359 36.47 36.5536 37.5829C35.4712 38.6957 34.1857 39.5808 32.772 40.1834C31.3566 40.7861 29.8396 41.096 28.3077 41.096V53.0734C31.3682 53.0734 34.4005 52.4536 37.2279 51.2501C40.057 50.0448 42.6263 48.278 44.791 46.0523C46.9557 43.8266 48.6742 41.185 49.8465 38.2762C51.0171 35.3691 51.6199 32.2515 51.6199 29.1048C51.6199 25.958 51.0171 22.8404 49.8465 19.9334C48.6742 17.0246 46.9557 14.3829 44.791 12.1573C42.6263 9.9316 40.057 8.16475 37.2279 6.95947C34.4005 5.7559 31.3682 5.13614 28.3077 5.13614V17.1136ZM28.3077 17.1205C26.7774 17.1205 25.2621 17.4304 23.8467 18.033C22.433 18.6357 21.1475 19.5173 20.0651 20.6301C18.9828 21.743 18.1253 23.0646 17.5391 24.5182C16.953 25.9734 16.6516 27.5314 16.6516 29.1048C16.6516 30.6781 16.953 32.2361 17.5391 33.6914C18.1253 35.1449 18.9828 36.4666 20.0651 37.5794C21.1475 38.6922 22.433 39.5739 23.8467 40.1765C25.2621 40.7792 26.7774 41.0891 28.3077 41.0891V17.1205Z" fill="#FEFDFB"/>
</svg>
