<svg width="106" height="192" viewBox="0 0 106 192" fill="none" xmlns="http://www.w3.org/2000/svg">
<path d="M52.9214 192C48.3196 192 43.7177 191.574 39.1158 190.722C34.6844 190.04 30.3382 188.762 26.0772 186.887C21.9867 184.842 18.237 182.2 14.8282 178.961C11.4194 175.723 8.60717 172.144 6.39146 168.224C4.17575 164.133 2.5566 159.872 1.53397 155.441C0.511329 150.839 0 146.237 0 141.635V140.101H35.0253V140.868C35.0253 143.425 35.281 146.067 35.7923 148.794C36.474 151.35 37.5819 153.736 39.1158 155.952C40.6498 158.168 42.6098 159.872 44.996 161.065C47.5526 162.258 50.1944 162.855 52.9214 162.855C55.8189 162.855 58.5459 162.088 61.1025 160.554C63.6591 159.02 65.6192 157.06 66.9827 154.674C68.5167 152.117 69.5393 149.39 70.0506 146.493C70.5619 143.595 70.8176 140.698 70.8176 137.8C70.8176 135.244 70.5619 132.687 70.0506 130.13C69.7097 127.403 69.0279 124.847 68.0053 122.461C66.9827 120.075 65.534 117.944 63.6591 116.069C61.9547 114.024 59.9095 112.405 57.5233 111.212C55.1372 110.019 52.6658 109.252 50.1092 108.911C47.5526 108.57 44.9108 108.399 42.1837 108.399V79.2543C44.5699 79.2543 46.8709 79.1691 49.0866 78.9987C51.4727 78.6578 53.6884 77.8908 55.7337 76.6977C57.7789 75.5047 59.5686 74.0559 61.1025 72.3515C62.6365 70.4767 63.8296 68.4314 64.6818 66.2157C65.534 64 66.0453 61.7843 66.2157 59.5686C66.5566 57.1824 66.727 54.7963 66.727 52.4101C66.727 49.8535 66.5566 47.3822 66.2157 44.996C65.8748 42.4394 65.1931 40.0533 64.1705 37.8375C63.1478 35.4514 61.6138 33.4061 59.5686 31.7017C57.6937 29.9973 55.478 29.1451 52.9214 29.1451C50.5353 29.1451 48.3196 29.9121 46.2743 31.4461C44.229 32.98 42.6951 34.8549 41.6724 37.0706C40.6498 39.1158 39.9681 41.3316 39.6272 43.7177C39.2863 46.1039 39.1158 48.5752 39.1158 51.1318V51.8988H4.09053V49.8535C4.09053 45.4221 4.51666 41.0759 5.36886 36.8149C6.3915 32.3835 7.8402 28.2077 9.71503 24.2876C11.5899 20.3675 14.0613 16.7883 17.1292 13.5499C20.1971 10.3116 23.6059 7.66977 27.3555 5.6245C31.2756 3.57923 35.3662 2.13049 39.6272 1.27829C44.0586 0.426098 48.49 0 52.9214 0C57.3528 0 61.7843 0.426098 66.2157 1.27829C70.6471 2.13049 74.7377 3.66445 78.4873 5.88016C82.4074 8.09587 85.8162 10.9081 88.7137 14.3169C91.7816 17.7257 94.253 21.4754 96.1278 25.5659C98.0027 29.486 99.3662 33.6618 100.218 38.0932C101.241 42.3542 101.752 46.7004 101.752 51.1318C101.752 55.3928 101.326 59.5686 100.474 63.6591C99.6218 67.7497 98.2583 71.6698 96.3835 75.4194C94.5087 78.9987 92.1225 82.3222 89.225 85.3901C86.498 88.458 83.3449 91.0999 79.7656 93.3156C83.8562 95.5313 87.5206 98.2583 90.759 101.497C94.1678 104.735 96.98 108.399 99.1957 112.49C101.582 116.41 103.286 120.671 104.309 125.273C105.332 129.704 105.843 134.221 105.843 138.823C105.843 143.595 105.332 148.282 104.309 152.884C103.286 157.486 101.667 161.917 99.4514 166.178C97.4061 170.439 94.6791 174.274 91.2703 177.683C88.032 181.092 84.2823 183.904 80.0213 186.12C75.9308 188.336 71.5846 189.869 66.9827 190.722C62.3808 191.574 57.6937 192 52.9214 192Z" fill="white"/>
</svg>
