<svg width="102" height="190" viewBox="0 0 102 190" fill="none" xmlns="http://www.w3.org/2000/svg">
<path d="M50.8761 189.955C46.4447 189.955 42.0985 189.529 37.8375 188.676C33.5765 187.995 29.486 186.716 25.5659 184.842C21.6458 182.796 18.0666 180.24 14.8282 177.172C11.7603 174.104 9.1185 170.695 6.90278 166.945C4.85751 163.196 3.23832 159.276 2.04525 155.185C1.02261 150.924 0.340879 146.578 0 142.146H35.281C35.4514 144.362 35.7923 146.578 36.3036 148.794C36.9854 151.009 37.9228 153.055 39.1158 154.929C40.4794 156.804 42.1837 158.253 44.229 159.276C46.2743 160.298 48.49 160.81 50.8761 160.81C53.0918 160.81 55.1372 160.213 57.012 159.02C58.8868 157.656 60.4208 156.037 61.6138 154.162C62.8069 152.117 63.6591 149.987 64.1704 147.771C64.8522 145.555 65.3635 143.34 65.7043 141.124C66.2157 138.908 66.4714 136.692 66.4714 134.477C66.6418 132.261 66.727 130.045 66.727 127.83C66.727 125.443 66.6418 123.142 66.4714 120.927C66.4714 118.711 66.3009 116.581 65.96 114.535C65.6191 112.32 65.1078 110.189 64.4261 108.144C63.9148 105.928 63.0626 103.883 61.8695 102.008C60.8469 99.9627 59.3981 98.2583 57.5233 96.8948C55.8189 95.5313 53.8588 94.8495 51.6431 94.8495C49.7683 94.8495 47.8934 95.1052 46.0186 95.6165C44.3142 96.1278 42.7803 97.0652 41.4167 98.4287C40.2237 99.7923 39.2862 101.411 38.6045 103.286C37.9227 104.991 37.5818 106.78 37.5818 108.655H2.55657V0H94.8495V29.1451H37.5818V66.9827C39.7976 66.4714 42.0985 66.1305 44.4847 65.96C46.8708 65.7896 49.2569 65.7044 51.6431 65.7044C56.7563 65.7044 61.7842 66.3861 66.727 67.7497C71.6697 68.9427 76.1012 70.988 80.0213 73.8855C84.1118 76.7829 87.6058 80.3622 90.5033 84.6232C93.4008 88.8841 95.7017 93.4008 97.4061 98.1731C99.1105 102.775 100.218 107.632 100.73 112.746C101.411 117.688 101.752 122.716 101.752 127.83C101.752 132.943 101.411 138.056 100.73 143.169C100.218 148.112 99.0253 152.969 97.1504 157.742C95.446 162.514 93.0599 167.031 89.992 171.292C87.0946 175.382 83.6005 178.876 79.51 181.774C75.4194 184.671 70.8175 186.716 65.7043 187.909C60.7616 189.273 55.8189 189.955 50.8761 189.955Z" fill="white"/>
</svg>
