<svg width="104" height="190" viewBox="0 0 104 190" fill="none" xmlns="http://www.w3.org/2000/svg">
<path d="M51.6431 189.955C46.53 189.955 41.502 189.358 36.5592 188.165C31.6165 186.972 27.0147 185.012 22.7537 182.285C18.6631 179.387 15.0839 175.893 12.016 171.803C8.94805 167.712 6.47669 163.366 4.60186 158.764C2.89746 153.992 1.7044 149.134 1.02264 144.192C0.340886 139.079 0 133.965 0 128.852C0 121.864 0.511288 114.961 1.53392 108.144C2.55656 101.156 4.00535 94.3382 5.88018 87.6911C7.75501 80.8735 10.0559 74.3116 12.7829 68.0053C15.51 61.5286 18.3222 55.0519 21.2197 48.5752L43.9733 0H81.5552L52.9215 61.1025C51.7284 63.6591 50.5352 66.2157 49.3422 68.7723C48.1491 71.3289 47.0413 73.8855 46.0186 76.4421C48.7457 73.715 51.8988 71.6698 55.478 70.3063C59.2277 68.7723 63.0626 68.0053 66.9827 68.0053C71.4141 68.0053 75.6751 68.9427 79.7656 70.8176C83.8562 72.6924 87.2649 75.3342 89.992 78.743C92.8895 82.1518 95.1904 85.9015 96.8948 89.992C98.5992 94.0825 99.8775 98.3435 100.73 102.775C101.752 107.036 102.434 111.382 102.775 115.814C103.116 120.245 103.286 124.591 103.286 128.852C103.286 133.965 102.945 139.079 102.264 144.192C101.582 149.134 100.304 153.992 98.4287 158.764C96.7243 163.366 94.3382 167.712 91.2703 171.803C88.2024 175.893 84.538 179.387 80.277 182.285C76.1864 185.012 71.6698 186.972 66.727 188.165C61.7843 189.358 56.7563 189.955 51.6431 189.955ZM51.6431 160.81C53.8588 160.81 55.9042 160.213 57.779 159.02C59.8243 157.827 61.4434 156.378 62.6364 154.674C63.8295 152.799 64.7669 150.839 65.4487 148.794C66.3009 146.578 66.8974 144.362 67.2383 142.146C67.7496 139.931 68.0053 137.715 68.0053 135.499C68.1758 133.284 68.2609 131.068 68.2609 128.852C68.2609 126.636 68.1758 124.421 68.0053 122.205C68.0053 119.989 67.7496 117.859 67.2383 115.814C66.8974 113.598 66.3009 111.467 65.4487 109.422C64.7669 107.206 63.8295 105.161 62.6364 103.286C61.4434 101.411 59.8243 99.9627 57.779 98.9401C55.9042 97.747 53.8588 97.1505 51.6431 97.1505C49.0865 97.1505 46.7004 97.9174 44.4847 99.4514C42.269 100.985 40.5646 102.945 39.3715 105.332C38.1784 107.547 37.241 109.933 36.5592 112.49C36.0479 115.047 35.6218 117.603 35.2809 120.16L35.0253 125.273V128.852C35.0253 131.068 35.0253 133.284 35.0253 135.499C35.1958 137.715 35.4514 139.931 35.7923 142.146C36.3036 144.362 36.9001 146.578 37.5819 148.794C38.4341 150.839 39.4567 152.799 40.6498 154.674C41.8429 156.378 43.3768 157.827 45.2517 159.02C47.2969 160.213 49.4274 160.81 51.6431 160.81Z" fill="white"/>
</svg>
