<svg width="104" height="190" viewBox="0 0 104 190" fill="none" xmlns="http://www.w3.org/2000/svg">
<path d="M21.731 189.955L50.3648 128.852C51.5579 126.296 52.751 123.739 53.9441 121.182C55.1372 118.626 56.245 116.069 57.2676 113.513C54.5406 116.24 51.3022 118.37 47.5526 119.904C43.9733 121.268 40.2237 121.949 36.3036 121.949C31.8721 121.949 27.6112 121.012 23.5206 119.137C19.4301 117.262 15.9361 114.62 13.0386 111.212C10.3116 107.803 8.09585 104.053 6.39146 99.9627C4.68707 95.8722 3.3236 91.6964 2.30097 87.4354C1.44877 83.004 0.85216 78.5726 0.511281 74.1411C0.170402 69.7097 0 65.3635 0 61.1025C0 55.9893 0.340886 50.9614 1.02264 46.0186C1.7044 40.9054 2.89746 36.0479 4.60186 31.4461C6.47669 26.6738 8.94805 22.2423 12.016 18.1518C15.0839 14.0612 18.6631 10.6525 22.7537 7.92544C27.0147 5.02796 31.6165 2.98269 36.5592 1.78961C41.502 0.596535 46.53 0 51.6431 0C56.7563 0 61.7843 0.596535 66.727 1.78961C71.6698 2.98269 76.1864 5.02796 80.277 7.92544C84.538 10.6525 88.2024 14.0612 91.2703 18.1518C94.3382 22.2423 96.7243 26.6738 98.4287 31.4461C100.304 36.0479 101.582 40.9054 102.264 46.0186C102.945 50.9614 103.286 55.9893 103.286 61.1025C103.286 68.0905 102.775 75.0786 101.752 82.0666C100.73 88.8841 99.2809 95.7017 97.4061 102.519C95.5312 109.166 93.2304 115.728 90.5033 122.205C87.7763 128.511 84.9641 134.903 82.0666 141.379L59.3129 189.955H21.731ZM51.6431 92.8042C54.1997 92.8042 56.5858 92.0373 58.8016 90.5033C61.0173 88.9694 62.7217 87.0945 63.9148 84.8788C65.1078 82.4927 65.96 80.0213 66.4713 77.4647C67.1531 74.9081 67.6645 72.3515 68.0053 69.7949L68.2609 64.6818V61.1025C68.2609 58.8868 68.1758 56.6711 68.0053 54.4554C68.0053 52.2397 67.7496 50.024 67.2383 47.8082C66.8974 45.5925 66.3009 43.4621 65.4487 41.4168C64.7669 39.2011 63.8295 37.241 62.6364 35.5366C61.4434 33.6618 59.8243 32.1278 57.779 30.9347C55.9042 29.7417 53.8588 29.1451 51.6431 29.1451C49.4274 29.1451 47.2969 29.7417 45.2517 30.9347C43.3768 32.1278 41.8429 33.6618 40.6498 35.5366C39.4567 37.241 38.4341 39.2011 37.5819 41.4168C36.9001 43.4621 36.3036 45.5925 35.7923 47.8082C35.4514 50.024 35.1958 52.2397 35.0253 54.4554C35.0253 56.6711 35.0253 58.8868 35.0253 61.1025C35.0253 63.3182 35.0253 65.534 35.0253 67.7497C35.1958 69.9654 35.4514 72.1811 35.7923 74.3968C36.3036 76.4421 36.9001 78.5726 37.5819 80.7883C38.4341 82.8335 39.4567 84.7936 40.6498 86.6684C41.8429 88.5433 43.3768 90.0772 45.2517 91.2703C47.2969 92.2929 49.4274 92.8042 51.6431 92.8042Z" fill="white"/>
</svg>
