<svg width="101" height="190" viewBox="0 0 101 190" fill="none" xmlns="http://www.w3.org/2000/svg">
<path d="M0.511322 189.955V189.699C0.511322 185.438 0.511322 181.177 0.511322 176.916C0.681761 172.485 1.02265 168.138 1.53397 163.877C2.21572 159.446 3.06792 155.185 4.09055 151.095C5.11319 146.834 6.39149 142.658 7.92545 138.567C9.62984 134.477 11.5899 130.557 13.8056 126.807C16.0213 123.057 18.4075 119.478 20.964 116.069C23.6911 112.66 26.5886 109.422 29.6565 106.354C32.7244 103.286 35.9627 100.389 39.3715 97.6618C42.7803 94.9347 46.1039 92.2077 49.3422 89.4807C52.751 86.7537 55.7337 83.6005 58.2903 80.0213C60.8469 76.4421 62.7217 72.6072 63.9148 68.5166C65.1079 64.2557 65.7044 59.9095 65.7044 55.478C65.7044 53.6032 65.6192 51.7284 65.4487 49.8535C65.2783 47.9787 65.0226 46.1039 64.6818 44.229C64.3409 42.3542 63.7443 40.5646 62.8921 38.8602C62.2104 36.9853 61.273 35.3662 60.0799 34.0027C59.0573 32.4687 57.6085 31.2756 55.7337 30.4234C54.0293 29.5712 52.2397 29.1451 50.3648 29.1451C47.8083 29.1451 45.4221 29.8269 43.2064 31.1904C41.1611 32.5539 39.4567 34.3435 38.0932 36.5593C36.9001 38.775 36.0479 41.1611 35.5366 43.7177C35.1957 46.1039 35.0253 48.5752 35.0253 51.1318V51.8988H0V50.1092C0 45.6778 0.426107 41.2463 1.2783 36.8149C2.30094 32.3835 3.83489 28.2077 5.88016 24.2876C7.92543 20.3675 10.482 16.7883 13.5499 13.5499C16.7883 10.3116 20.3675 7.66977 24.2876 5.6245C28.3782 3.40879 32.6392 1.96005 37.0706 1.27829C41.502 0.426098 45.9334 0 50.3648 0C55.1371 0 59.8242 0.511317 64.4261 1.53395C69.1984 2.38615 73.6298 4.09054 77.7204 6.64714C81.8109 9.03329 85.3901 12.1012 88.458 15.8509C91.5259 19.4301 93.9973 23.4354 95.8722 27.8669C97.747 32.1278 99.0253 36.6445 99.7071 41.4168C100.389 46.0186 100.73 50.7057 100.73 55.478C100.73 60.7616 100.133 66.0453 98.9401 71.3289C97.747 76.4421 95.8722 81.2996 93.3156 85.9015C90.759 90.5033 87.6911 94.7643 84.1119 98.6844C80.5326 102.605 76.783 106.354 72.8629 109.933C69.1132 113.342 65.3635 116.921 61.6138 120.671C57.8642 124.25 54.3702 128.17 51.1318 132.431C48.0639 136.692 45.3369 141.209 42.9507 145.981C40.735 150.754 39.0306 155.696 37.8375 160.81H99.7071V189.955H0.511322Z" fill="white"/>
</svg>
