<svg width="104" height="192" viewBox="0 0 104 192" fill="none" xmlns="http://www.w3.org/2000/svg">
<path d="M51.6431 192C46.8708 192 42.1838 191.574 37.5819 190.722C32.98 189.87 28.5486 188.336 24.2876 186.12C20.1971 183.904 16.5326 181.092 13.2943 177.683C10.0559 174.274 7.41411 170.439 5.36884 166.178C3.32357 161.917 1.87483 157.486 1.02264 152.884C0.340879 148.282 0 143.595 0 138.823V53.1771C0 48.4048 0.340879 43.7177 1.02264 39.1158C1.87483 34.514 3.32357 30.0825 5.36884 25.8216C7.41411 21.5606 10.0559 17.7257 13.2943 14.3169C16.5326 10.9081 20.1971 8.09587 24.2876 5.88016C28.5486 3.66445 32.98 2.13049 37.5819 1.27829C42.1838 0.426098 46.8708 0 51.6431 0C56.4154 0 61.1025 0.426098 65.7044 1.27829C70.3063 2.13049 74.6525 3.66445 78.743 5.88016C83.004 8.09587 86.7536 10.9081 89.992 14.3169C93.2303 17.7257 95.8722 21.5606 97.9174 25.8216C99.9627 30.0825 101.326 34.514 102.008 39.1158C102.86 43.7177 103.286 48.4048 103.286 53.1771V138.823C103.286 143.595 102.86 148.282 102.008 152.884C101.326 157.486 99.9627 161.917 97.9174 166.178C95.8722 170.439 93.2303 174.274 89.992 177.683C86.7536 181.092 83.004 183.904 78.743 186.12C74.6525 188.336 70.3063 189.87 65.7044 190.722C61.1025 191.574 56.4154 192 51.6431 192ZM35.0253 95.1052L68.261 68.7723V53.1771C68.261 50.4501 68.0053 47.723 67.494 44.996C67.1531 42.269 66.3009 39.7124 64.9374 37.3262C63.7443 34.7696 61.8695 32.8096 59.3129 31.4461C56.9268 29.9121 54.3702 29.1451 51.6431 29.1451C48.9161 29.1451 46.2743 29.9121 43.7177 31.4461C41.3316 32.8096 39.4567 34.7696 38.0932 37.3262C36.9001 39.7124 36.0479 42.269 35.5366 44.996C35.1957 47.723 35.0253 50.4501 35.0253 53.1771V95.1052ZM51.6431 162.855C54.3702 162.855 56.9268 162.173 59.3129 160.81C61.8695 159.276 63.7443 157.316 64.9374 154.929C66.3009 152.373 67.1531 149.731 67.494 147.004C68.0053 144.277 68.261 141.55 68.261 138.823V96.8948L35.0253 123.228V138.823C35.0253 141.55 35.1957 144.277 35.5366 147.004C36.0479 149.731 36.9001 152.373 38.0932 154.929C39.4567 157.316 41.3316 159.276 43.7177 160.81C46.2743 162.173 48.9161 162.855 51.6431 162.855Z" fill="white"/>
</svg>
