<svg width="56" height="138" viewBox="0 0 56 138" fill="none" xmlns="http://www.w3.org/2000/svg">
<path d="M27.6112 137.033C23.8615 137.033 20.1971 136.437 16.6179 135.244C13.0387 134.221 9.88554 132.431 7.1585 129.875C4.60191 127.148 2.72708 123.995 1.53401 120.415C0.51137 116.836 0 113.172 0 109.422C0 105.672 0.51137 102.008 1.53401 98.4288C2.72708 94.8495 4.60191 91.7816 7.1585 89.225C9.88554 86.498 13.0387 84.6232 16.6179 83.6005C20.1971 82.4075 23.8615 81.8109 27.6112 81.8109C31.3609 81.8109 35.0253 82.4075 38.6045 83.6005C42.1838 84.6232 45.2517 86.498 47.8083 89.225C50.5354 91.7816 52.4101 94.8495 53.4327 98.4288C54.6258 102.008 55.2223 105.672 55.2223 109.422C55.2223 113.172 54.6258 116.836 53.4327 120.415C52.4101 123.995 50.5354 127.148 47.8083 129.875C45.2517 132.431 42.1838 134.221 38.6045 135.244C35.0253 136.437 31.3609 137.033 27.6112 137.033ZM27.6112 55.2224C23.8615 55.2224 20.1971 54.711 16.6179 53.6884C13.0387 52.4953 9.88554 50.6205 7.1585 48.0639C4.60191 45.3369 2.72708 42.1837 1.53401 38.6045C0.51137 35.0253 0 31.3608 0 27.6112C0 23.8615 0.51137 20.1971 1.53401 16.6178C2.72708 13.0386 4.60191 9.9707 7.1585 7.41411C9.88554 4.68708 13.0387 2.81224 16.6179 1.78961C20.1971 0.596535 23.8615 0 27.6112 0C31.3609 0 35.0253 0.596535 38.6045 1.78961C42.1838 2.81224 45.2517 4.68708 47.8083 7.41411C50.5354 9.9707 52.4101 13.0386 53.4327 16.6178C54.6258 20.1971 55.2223 23.8615 55.2223 27.6112C55.2223 31.3608 54.6258 35.0253 53.4327 38.6045C52.4101 42.1837 50.5354 45.3369 47.8083 48.0639C45.2517 50.6205 42.1838 52.4953 38.6045 53.6884C35.0253 54.711 31.3609 55.2224 27.6112 55.2224Z" fill="white"/>
</svg>
