<svg width="104" height="192" viewBox="0 0 104 192" fill="none" xmlns="http://www.w3.org/2000/svg">
<path d="M51.6431 192C47.2117 192 42.695 191.574 38.0932 190.722C33.6617 190.04 29.4008 188.676 25.3102 186.631C21.3901 184.586 17.7257 182.029 14.3169 178.961C11.0786 175.723 8.35149 172.144 6.13578 168.224C4.09051 164.133 2.55656 159.872 1.53392 155.441C0.511288 151.009 0 146.578 0 142.146C0 137.374 0.59653 132.687 1.78961 128.085C3.15312 123.313 5.02795 118.881 7.4141 114.791C9.80026 110.53 12.6125 106.61 15.8509 103.031C19.0892 99.4514 22.498 96.1278 26.0772 93.0599C23.0093 90.1624 20.1118 87.0093 17.3848 83.6005C14.6577 80.1917 12.2716 76.6125 10.2264 72.8628C8.18108 68.9427 6.64714 64.9374 5.6245 60.8469C4.60186 56.5859 4.09057 52.2397 4.09057 47.8082C4.09057 43.7177 4.51662 39.6272 5.36882 35.5366C6.39145 31.2756 7.84024 27.2703 9.71507 23.5206C11.5899 19.6005 13.976 16.1065 16.8735 13.0386C19.9414 9.9707 23.3502 7.41411 27.0998 5.36883C30.8495 3.32357 34.7697 1.96005 38.8602 1.27829C43.1212 0.426098 47.3821 0 51.6431 0C55.9041 0 60.0799 0.426098 64.1705 1.27829C68.4314 1.96005 72.4367 3.32357 76.1864 5.36883C79.9361 7.41411 83.2596 9.9707 86.1571 13.0386C89.225 16.1065 91.6964 19.6005 93.5713 23.5206C95.4461 27.2703 96.8096 31.2756 97.6618 35.5366C98.6844 39.6272 99.1957 43.7177 99.1957 47.8082C99.1957 52.2397 98.6844 56.5859 97.6618 60.8469C96.6391 64.9374 95.1052 68.9427 93.0599 72.8628C91.0146 76.6125 88.6285 80.1917 85.9015 83.6005C83.1745 87.0093 80.277 90.1624 77.2091 93.0599C80.7883 96.1278 84.1971 99.4514 87.4354 103.031C90.6738 106.61 93.486 110.53 95.8722 114.791C98.2583 118.881 100.048 123.313 101.241 128.085C102.604 132.687 103.286 137.374 103.286 142.146C103.286 146.578 102.775 151.009 101.752 155.441C100.73 159.872 99.1105 164.133 96.8948 168.224C94.8495 172.144 92.1225 175.723 88.7137 178.961C85.4754 182.029 81.8109 184.586 77.7203 186.631C73.8002 188.676 69.5393 190.04 64.9374 190.722C60.506 191.574 56.0746 192 51.6431 192ZM51.6431 73.8855C55.2224 70.4767 58.2051 66.5566 60.5912 62.1252C62.9774 57.6937 64.1705 53.0067 64.1705 48.0639C64.1705 46.0186 64 43.9734 63.6591 41.9281C63.3182 39.7124 62.6364 37.6671 61.6138 35.7923C60.7616 33.9174 59.3981 32.3835 57.5233 31.1904C55.6485 29.8269 53.6884 29.1451 51.6431 29.1451C49.5979 29.1451 47.6378 29.8269 45.763 31.1904C43.8881 32.3835 42.4394 33.9174 41.4168 35.7923C40.5646 37.6671 39.9681 39.7124 39.6272 41.9281C39.2863 43.9734 39.1158 46.0186 39.1158 48.0639C39.1158 53.0067 40.309 57.6937 42.6951 62.1252C45.0813 66.5566 48.0639 70.4767 51.6431 73.8855ZM51.6431 162.855C54.1997 162.855 56.5858 162.344 58.8016 161.321C61.1877 160.128 63.0625 158.509 64.4261 156.463C65.7896 154.248 66.8122 151.947 67.494 149.561C68.1757 147.004 68.5166 144.447 68.5166 141.891C68.5166 138.993 68.0053 136.181 66.9827 133.454C66.1305 130.557 64.9374 127.915 63.4035 125.529C61.8695 122.972 60.0799 120.671 58.0346 118.626C55.9893 116.581 53.8588 114.62 51.6431 112.746C49.4274 114.62 47.2969 116.581 45.2517 118.626C43.2064 120.671 41.4168 122.972 39.8829 125.529C38.3489 127.915 37.0706 130.557 36.048 133.454C35.1958 136.181 34.7696 138.993 34.7696 141.891C34.7696 144.447 35.1105 147.004 35.7923 149.561C36.474 151.947 37.4967 154.248 38.8602 156.463C40.2237 158.509 42.0133 160.128 44.229 161.321C46.6152 162.344 49.0865 162.855 51.6431 162.855Z" fill="white"/>
</svg>
