<svg width="32" height="24" viewBox="0 0 32 24" fill="none" xmlns="http://www.w3.org/2000/svg">
<path d="M15.9435 23.7373C15.7688 23.7373 15.5909 23.6831 15.4096 23.5764C15.2349 23.4747 15.009 23.2883 14.7305 23.0172L11.4032 19.7249C11.2714 19.5961 11.1873 19.4521 11.1527 19.2945C11.1181 19.1301 11.1461 18.976 11.2367 18.832C11.563 18.3728 11.9717 17.9644 12.4596 17.6069C12.9556 17.2477 13.4995 16.9647 14.0911 16.7562C14.6844 16.5478 15.3024 16.4444 15.9435 16.4444C16.5714 16.4444 17.1746 16.5445 17.7531 16.7461C18.3398 16.9393 18.872 17.2087 19.3532 17.5527C19.8345 17.8967 20.24 18.2795 20.5679 18.7031C20.6932 18.8675 20.7459 19.0471 20.7244 19.2403C20.703 19.4284 20.6272 19.5894 20.4937 19.7249L17.1565 23.0172C16.8846 23.2968 16.6587 23.4865 16.4774 23.5865C16.2961 23.6865 16.1182 23.7373 15.9435 23.7373ZM7.8253 15.9175L5.69113 13.7876C5.54446 13.6452 5.46536 13.486 5.45053 13.3148C5.44393 13.1352 5.50332 12.9709 5.62857 12.8201C6.3537 11.9305 7.25015 11.1494 8.31808 10.475C9.39094 9.79383 10.5776 9.26348 11.8745 8.88393C13.1781 8.50268 14.5345 8.31289 15.9435 8.31289C17.346 8.31289 18.694 8.50268 19.9927 8.88393C21.2963 9.26348 22.4845 9.79383 23.559 10.475C24.6335 11.1494 25.5301 11.9305 26.247 12.8201C26.3739 12.9709 26.4283 13.1352 26.4151 13.3148C26.4085 13.4945 26.331 13.652 26.1843 13.7876L24.0502 15.9074C23.8771 16.0717 23.6876 16.1581 23.4866 16.1649C23.2839 16.1649 23.1058 16.0785 22.9526 15.9074C22.3807 15.2838 21.7182 14.7348 20.965 14.2621C20.2119 13.7876 19.406 13.4183 18.549 13.1539C17.697 12.8879 16.8285 12.7557 15.9435 12.7557C15.0651 12.7557 14.1999 12.8845 13.3496 13.142C12.4992 13.4013 11.6998 13.7622 10.9533 14.2282C10.2067 14.6958 9.55572 15.2363 8.99704 15.8531C8.82235 16.0395 8.62792 16.1395 8.41202 16.1548C8.19613 16.1683 7.99999 16.0903 7.8253 15.9175ZM2.13466 10.1632L0.231242 8.17395C0.0911596 8.02314 0.0153263 7.85373 0.000494023 7.66735C-0.00609808 7.47418 0.053284 7.30302 0.178534 7.15221C1.00914 6.09827 1.99957 5.13244 3.14989 4.25811C4.30021 3.38378 5.56592 2.63149 6.94697 1.99947C8.32801 1.36236 9.77826 0.870946 11.2994 0.526976C12.8255 0.174534 14.3746 0 15.9435 0C17.5124 0 19.0567 0.174534 20.5778 0.526976C22.0989 0.877724 23.5458 1.36914 24.9186 1.99947C26.2997 2.63149 27.5654 3.38378 28.7157 4.25811C29.8743 5.13244 30.868 6.09827 31.6986 7.15221C31.8239 7.30302 31.8832 7.47418 31.875 7.66735C31.8684 7.85373 31.7926 8.02314 31.6459 8.17395L29.7424 10.131C29.5809 10.2954 29.3931 10.3818 29.1772 10.3886C28.9679 10.3886 28.7866 10.3106 28.6333 10.153C26.9655 8.32475 25.0522 6.93701 22.89 5.98982C20.7344 5.04433 18.4188 4.56992 15.9435 4.56992C13.4748 4.56992 11.1626 5.04433 9.00861 5.98982C6.85958 6.93701 4.94951 8.31628 3.27512 10.131C3.11526 10.3106 2.92244 10.4038 2.69996 10.4106C2.48407 10.4106 2.29452 10.3276 2.13466 10.1632Z" fill="black" fill-opacity="0.75"/>
</svg>
