<svg width="56" height="41" viewBox="0 0 56 41" fill="none" xmlns="http://www.w3.org/2000/svg">
<path d="M27.6488 40.0285C27.3356 40.0285 27.0224 39.9423 26.7091 39.7701C26.4116 39.5978 26.0279 39.2768 25.5581 38.807L19.7558 33.2396C19.5366 33.0204 19.3956 32.7855 19.333 32.5349C19.286 32.2687 19.333 32.0181 19.4739 31.7832C20.3353 30.64 21.4863 29.6847 22.9271 28.9173C24.3835 28.1343 25.9574 27.7427 27.6488 27.7427C29.2931 27.7427 30.8279 28.1108 32.253 28.8468C33.6781 29.5829 34.8213 30.4912 35.6827 31.5718C35.9019 31.838 35.988 32.1277 35.9411 32.4409C35.9097 32.7541 35.7766 33.0204 35.5417 33.2396L29.7395 38.807C29.2697 39.2768 28.8781 39.5978 28.5649 39.7701C28.2674 39.9423 27.962 40.0285 27.6488 40.0285ZM13.5777 26.8736L9.84268 23.2325C9.60777 22.9976 9.48248 22.7392 9.46682 22.4573C9.45116 22.1597 9.54513 21.8857 9.74871 21.6351C11.0016 20.1473 12.552 18.8319 14.3999 17.6886C16.2479 16.5298 18.2994 15.6214 20.5545 14.9637C22.8253 14.3059 25.1901 13.9771 27.6488 13.9771C30.1075 13.9771 32.4644 14.3059 34.7195 14.9637C36.9747 15.6214 39.0262 16.5298 40.8742 17.6886C42.7378 18.8319 44.2882 20.1473 45.5254 21.6351C45.7446 21.8857 45.8386 22.1597 45.8072 22.4573C45.7916 22.7548 45.6663 23.0132 45.4314 23.2325L41.6963 26.8736C41.3988 27.1555 41.0777 27.2964 40.7332 27.2964C40.4043 27.2964 40.1068 27.1555 39.8406 26.8736C38.3528 25.2919 36.5283 23.9999 34.3672 22.9976C32.2217 21.9953 29.9822 21.502 27.6488 21.5177C25.3467 21.502 23.115 21.9875 20.9539 22.9741C18.8084 23.945 17.0074 25.2136 15.551 26.7796C15.2691 27.0928 14.9402 27.2651 14.5643 27.2964C14.2042 27.3121 13.8753 27.1711 13.5777 26.8736ZM3.71155 17.1249L0.399336 13.7422C0.164427 13.4916 0.0391426 13.2175 0.023482 12.92C0.00782137 12.6068 0.101785 12.3327 0.305373 12.0978C2.20031 9.73305 4.58855 7.64236 7.4701 5.82573C10.3516 3.99344 13.5151 2.56833 16.9604 1.55039C20.4214 0.516789 23.9842 -1.11684e-05 27.6488 -1.11684e-05C31.2977 -1.11684e-05 34.8527 0.516789 38.3136 1.55039C41.7746 2.58399 44.9381 4.0091 47.804 5.82573C50.6855 7.64236 53.0738 9.73305 54.9687 12.0978C55.1879 12.3327 55.2897 12.6068 55.2741 12.92C55.2741 13.2175 55.1488 13.4916 54.8982 13.7422L51.5625 17.0779C51.2963 17.3441 50.9831 17.485 50.6229 17.5007C50.2627 17.5164 49.9495 17.3911 49.6832 17.1249C46.8017 14.0241 43.4816 11.675 39.7231 10.0776C35.9802 8.46454 31.9554 7.65802 27.6488 7.65802C23.3734 7.65802 19.3643 8.46454 15.6214 10.0776C11.8786 11.675 8.55068 14.0162 5.63781 17.1014C5.37158 17.3833 5.05053 17.532 4.67468 17.5477C4.31449 17.5477 3.99344 17.4067 3.71155 17.1249Z" fill="black" fill-opacity="0.75"/>
</svg>
